<?xml version="1.0" encoding="UTF-8" standalone="no"?>
<!-- Created with matplotlib (http://matplotlib.org/) -->

<svg
   xmlns:dc="http://purl.org/dc/elements/1.1/"
   xmlns:cc="http://creativecommons.org/ns#"
   xmlns:rdf="http://www.w3.org/1999/02/22-rdf-syntax-ns#"
   xmlns:svg="http://www.w3.org/2000/svg"
   xmlns="http://www.w3.org/2000/svg"
   xmlns:xlink="http://www.w3.org/1999/xlink"
   xmlns:sodipodi="http://sodipodi.sourceforge.net/DTD/sodipodi-0.dtd"
   xmlns:inkscape="http://www.inkscape.org/namespaces/inkscape"
   height="242.91609"
   version="1.1"
   viewBox="0 0 269.40756 194.33287"
   width="336.75946"
   id="svg2"
   inkscape:version="0.48.4 r9939"
   sodipodi:docname="FigExp.svg"
   inkscape:export-filename="/home/sebastiaan/Projects/P0001 Pre-saccadic PLR/manuscript/png/FigExp.png"
   inkscape:export-xdpi="180"
   inkscape:export-ydpi="180">
  <sodipodi:namedview
     pagecolor="#ffffff"
     bordercolor="#666666"
     borderopacity="1"
     objecttolerance="10"
     gridtolerance="10"
     guidetolerance="10"
     inkscape:pageopacity="0"
     inkscape:pageshadow="2"
     inkscape:window-width="1680"
     inkscape:window-height="986"
     id="namedview474"
     showgrid="false"
     inkscape:zoom="2.1889856"
     inkscape:cx="86.028838"
     inkscape:cy="131.81421"
     inkscape:window-x="1198"
     inkscape:window-y="547"
     inkscape:window-maximized="1"
     inkscape:current-layer="axes_1-9"
     showguides="true"
     inkscape:guide-bbox="true"
     fit-margin-top="0"
     fit-margin-left="0"
     fit-margin-right="0"
     fit-margin-bottom="0" />
  <metadata
     id="metadata476">
    <rdf:RDF>
      <cc:Work
         rdf:about="">
        <dc:format>image/svg+xml</dc:format>
        <dc:type
           rdf:resource="http://purl.org/dc/dcmitype/StillImage" />
        <dc:title />
      </cc:Work>
    </rdf:RDF>
  </metadata>
  <defs
     id="defs4"
     style="stroke-linecap:square;stroke-linejoin:round">
    <style
       type="text/css"
       id="style6">
*{stroke-linecap:square;stroke-linejoin:round;}
  </style>
    <clipPath
       id="p87bc4d08c9">
      <rect
         id="rect3864"
         y="14.4"
         x="18"
         width="111.6"
         height="115.2"
         style="stroke-linecap:square;stroke-linejoin:round" />
    </clipPath>
    <style
       id="style3267"
       type="text/css">
*{stroke-linecap:square;stroke-linejoin:round;}
  </style>
    <clipPath
       id="p87bc4d08c9-9">
      <rect
         id="rect5268"
         y="14.4"
         x="18"
         width="111.6"
         height="115.2"
         style="stroke-linecap:square;stroke-linejoin:round" />
    </clipPath>
    <style
       id="style4899"
       type="text/css">
*{stroke-linecap:square;stroke-linejoin:round;}
  </style>
  </defs>
  <g
     id="figure_1"
     style="stroke-linecap:square;stroke-linejoin:round"
     transform="translate(-18.265152,-64.298369)">
    <g
       id="figure_1-3"
       transform="translate(35.276088,105.65155)"
       style="stroke-linecap:square;stroke-linejoin:round">
      <g
         id="patch_1"
         style="stroke-linecap:square;stroke-linejoin:round">
        <path
           id="path4903"
           style="fill:#ffffff;stroke-linecap:square;stroke-linejoin:round"
           d="M 0,144 144,144 144,0 0,0 z"
           inkscape:connector-curvature="0" />
      </g>
      <g
         id="axes_1-9"
         style="stroke-linecap:square;stroke-linejoin:round">
        <g
           id="patch_2-0"
           style="stroke-linecap:square;stroke-linejoin:round">
          <path
             id="path4907"
             style="fill:#ffffff;stroke-linecap:square;stroke-linejoin:round"
             d="m 18,129.6 111.6,0 0,-115.2 -111.6,0 z"
             inkscape:connector-curvature="0" />
        </g>
        <g
           id="line2d_1-6"
           style="stroke-linecap:square;stroke-linejoin:round;stroke:#000000">
          <path
             id="path4910"
             style="fill:none;stroke:#000000;stroke-linecap:butt;stroke-linejoin:round;stroke-dasharray:6, 6;stroke-dashoffset:0"
             d="m 18,105.132 111.6,0"
             clip-path="url(#p87bc4d08c9-9)"
             inkscape:connector-curvature="0" />
        </g>
        <g
           id="line2d_2-1"
           style="stroke-linecap:square;stroke-linejoin:round;stroke:#000000">
          <path
             id="path4913"
             style="fill:none;stroke:#000000;stroke-linecap:butt;stroke-linejoin:round;stroke-dasharray:6, 6;stroke-dashoffset:0"
             d="m 18,38.8915 111.6,0"
             clip-path="url(#p87bc4d08c9-9)"
             inkscape:connector-curvature="0" />
        </g>
        <g
           id="line2d_3-3"
           style="stroke-linecap:square;stroke-linejoin:round;stroke:#000000">
          <path
             id="path4916"
             style="fill:none;stroke:#000000;stroke-linecap:butt;stroke-linejoin:round;stroke-dasharray:6, 6;stroke-dashoffset:0"
             d="M 29,129.6 29,14.4"
             clip-path="url(#p87bc4d08c9-9)"
             inkscape:connector-curvature="0" />
        </g>
        <g
           id="line2d_4-2"
           style="stroke-linecap:square;stroke-linejoin:round;stroke:#000000">
          <path
             id="path4919"
             style="fill:none;stroke:#000000;stroke-width:2;stroke-linecap:square;stroke-linejoin:round"
             d="m 18,38.8915 11.0112,0.0435 2.0088,7.379 2.0088,6.5564 2.046,5.9271 2.046,5.2549 2.046,4.6589 2.0832,4.2012 2.1204,3.7788 2.1576,3.3905 2.1948,3.0346 2.232,2.7092 2.3064,2.4498 2.3808,2.2032 2.4552,1.9709 2.5668,1.7776 2.7156,1.6102 2.9016,1.4586 3.0876,1.3016 3.348,1.1682 3.6828,1.0453 4.092,0.924 4.5756,0.802 5.2824,0.693 6.1752,0.579 7.4772,0.471 9.486,0.364 12.946,0.26 4.129,0.049 0,0"
             clip-path="url(#p87bc4d08c9-9)"
             inkscape:connector-curvature="0" />
        </g>
        <g
           id="matplotlib.axis_1"
           style="stroke-linecap:square;stroke-linejoin:round">
          <g
             id="xtick_1-9"
             style="stroke-linecap:square;stroke-linejoin:round">
            <g
               id="line2d_5-9"
               style="stroke-linecap:square;stroke-linejoin:round">
              <defs
                 id="defs4924">
                <path
                   style="stroke:#000000;stroke-width:0.5;stroke-linecap:butt;stroke-linejoin:round"
                   id="mcb557df647-8"
                   d="M 0,0 0,-4"
                   inkscape:connector-curvature="0" />
              </defs>
              <g
                 id="g4927"
                 style="stroke-linecap:square;stroke-linejoin:round">
                <use
                   id="use4929"
                   y="129.60001"
                   xlink:href="#mcb557df647-8"
                   x="18"
                   style="stroke:#000000;stroke-width:0.5;stroke-linecap:butt;stroke-linejoin:round"
                   width="1"
                   height="1" />
              </g>
            </g>
            <g
               id="line2d_6-0"
               style="stroke-linecap:square;stroke-linejoin:round">
              <defs
                 id="defs4932">
                <path
                   style="stroke:#000000;stroke-width:0.5;stroke-linecap:butt;stroke-linejoin:round"
                   id="mdad270ee8e-1"
                   d="M 0,0 0,4"
                   inkscape:connector-curvature="0" />
              </defs>
              <g
                 id="g4935"
                 style="stroke-linecap:square;stroke-linejoin:round">
                <use
                   id="use4937"
                   y="14.4"
                   xlink:href="#mdad270ee8e-1"
                   x="18"
                   style="stroke:#000000;stroke-width:0.5;stroke-linecap:butt;stroke-linejoin:round"
                   width="1"
                   height="1" />
              </g>
            </g>
            <g
               id="text_1-7"
               style="stroke-linecap:square;stroke-linejoin:round">
              <!-- 0 -->
              <defs
                 id="defs4940">
                <path
                   id="ArialMT-30-7"
                   d="m 4.15625,35.2969 q 0,12.7031 2.60937,20.4375 2.60938,7.75 7.74998,11.9375 5.1563,4.2031 12.9688,4.2031 5.7656,0 10.1094,-2.3281 4.3437,-2.3125 7.1718,-6.6875 2.8438,-4.3594 4.4532,-10.6406 1.6093,-6.2657 1.6093,-16.9219 0,-12.5938 -2.5937,-20.3281 Q 45.6562,7.23438 40.5,3 35.3594,-1.21875 27.4844,-1.21875 q -10.3438,0 -16.25,7.42187 Q 4.15625,15.1406 4.15625,35.2969 m 9.03125,0 q 0,-17.625 4.125,-23.4688 Q 21.4375,6 27.4844,6 q 6.0625,0 10.1875,5.8594 4.125,5.8594 4.125,23.4375 0,17.6875 -4.125,23.4843 -4.125,5.8126 -10.2813,5.8126 -6.0468,0 -9.6718,-5.125 -4.5313,-6.5313 -4.5313,-24.1719"
                   inkscape:connector-curvature="0"
                   style="stroke-linecap:square;stroke-linejoin:round" />
              </defs>
              <g
                 id="g4943"
                 transform="matrix(0.1,0,0,-0.1,15.666406,140.7875)"
                 style="stroke-linecap:square;stroke-linejoin:round">
                <use
                   id="use4945"
                   xlink:href="#ArialMT-30-7"
                   style="stroke-linecap:square;stroke-linejoin:round"
                   x="0"
                   y="0"
                   width="1"
                   height="1" />
              </g>
            </g>
          </g>
          <g
             id="xtick_2-5"
             style="stroke-linecap:square;stroke-linejoin:round">
            <g
               id="line2d_7-8"
               style="stroke-linecap:square;stroke-linejoin:round">
              <g
                 id="g4949"
                 style="stroke-linecap:square;stroke-linejoin:round">
                <use
                   id="use4951"
                   y="129.60001"
                   xlink:href="#mcb557df647-8"
                   x="36.599998"
                   style="stroke:#000000;stroke-width:0.5;stroke-linecap:butt;stroke-linejoin:round"
                   width="1"
                   height="1" />
              </g>
            </g>
            <g
               id="line2d_8-9"
               style="stroke-linecap:square;stroke-linejoin:round">
              <g
                 id="g4954"
                 style="stroke-linecap:square;stroke-linejoin:round">
                <use
                   id="use4956"
                   y="14.4"
                   xlink:href="#mdad270ee8e-1"
                   x="36.599998"
                   style="stroke:#000000;stroke-width:0.5;stroke-linecap:butt;stroke-linejoin:round"
                   width="1"
                   height="1" />
              </g>
            </g>
          </g>
          <g
             id="xtick_3-3"
             style="stroke-linecap:square;stroke-linejoin:round">
            <g
               id="line2d_9-0"
               style="stroke-linecap:square;stroke-linejoin:round">
              <g
                 id="g4972"
                 style="stroke-linecap:square;stroke-linejoin:round">
                <use
                   id="use4974"
                   y="129.60001"
                   xlink:href="#mcb557df647-8"
                   x="55.200001"
                   style="stroke:#000000;stroke-width:0.5;stroke-linecap:butt;stroke-linejoin:round"
                   width="1"
                   height="1" />
              </g>
            </g>
            <g
               id="line2d_10-4"
               style="stroke-linecap:square;stroke-linejoin:round">
              <g
                 id="g4977"
                 style="stroke-linecap:square;stroke-linejoin:round">
                <use
                   id="use4979"
                   y="14.4"
                   xlink:href="#mdad270ee8e-1"
                   x="55.200001"
                   style="stroke:#000000;stroke-width:0.5;stroke-linecap:butt;stroke-linejoin:round"
                   width="1"
                   height="1" />
              </g>
            </g>
            <g
               id="text_3-4"
               style="stroke-linecap:square;stroke-linejoin:round">
              <!-- 1000 -->
              <defs
                 id="defs4982">
                <path
                   id="ArialMT-31-1"
                   d="m 37.25,0 -8.7812,0 0,56 q -3.1719,-3.0156 -8.3282,-6.0469 -5.1562,-3.0312 -9.25,-4.5469 l 0,8.5 q 7.375,3.4688 12.8906,8.3907 5.5157,4.9375 7.8126,9.5781 l 5.6562,0 z"
                   inkscape:connector-curvature="0"
                   style="stroke-linecap:square;stroke-linejoin:round" />
              </defs>
              <g
                 id="g4985"
                 transform="matrix(0.1,0,0,-0.1,44.861719,140.7875)"
                 style="stroke-linecap:square;stroke-linejoin:round">
                <use
                   id="use4987"
                   xlink:href="#ArialMT-31-1"
                   style="stroke-linecap:square;stroke-linejoin:round"
                   x="0"
                   y="0"
                   width="1"
                   height="1" />
                <use
                   id="use4989"
                   xlink:href="#ArialMT-30-7"
                   x="55.615234"
                   style="stroke-linecap:square;stroke-linejoin:round"
                   y="0"
                   width="1"
                   height="1" />
                <use
                   id="use4991"
                   xlink:href="#ArialMT-30-7"
                   x="111.23047"
                   style="stroke-linecap:square;stroke-linejoin:round"
                   y="0"
                   width="1"
                   height="1" />
                <use
                   id="use4993"
                   xlink:href="#ArialMT-30-7"
                   x="166.8457"
                   style="stroke-linecap:square;stroke-linejoin:round"
                   y="0"
                   width="1"
                   height="1" />
              </g>
            </g>
          </g>
          <g
             id="xtick_4-8"
             style="stroke-linecap:square;stroke-linejoin:round">
            <g
               id="line2d_11-4"
               style="stroke-linecap:square;stroke-linejoin:round">
              <g
                 id="g4997"
                 style="stroke-linecap:square;stroke-linejoin:round">
                <use
                   id="use4999"
                   y="129.60001"
                   xlink:href="#mcb557df647-8"
                   x="73.800003"
                   style="stroke:#000000;stroke-width:0.5;stroke-linecap:butt;stroke-linejoin:round"
                   width="1"
                   height="1" />
              </g>
            </g>
            <g
               id="line2d_12-0"
               style="stroke-linecap:square;stroke-linejoin:round">
              <g
                 id="g5002"
                 style="stroke-linecap:square;stroke-linejoin:round">
                <use
                   id="use5004"
                   y="14.4"
                   xlink:href="#mdad270ee8e-1"
                   x="73.800003"
                   style="stroke:#000000;stroke-width:0.5;stroke-linecap:butt;stroke-linejoin:round"
                   width="1"
                   height="1" />
              </g>
            </g>
          </g>
          <g
             id="xtick_5-5"
             style="stroke-linecap:square;stroke-linejoin:round">
            <g
               id="line2d_13-7"
               style="stroke-linecap:square;stroke-linejoin:round">
              <g
                 id="g5019"
                 style="stroke-linecap:square;stroke-linejoin:round">
                <use
                   id="use5021"
                   y="129.60001"
                   xlink:href="#mcb557df647-8"
                   x="92.400002"
                   style="stroke:#000000;stroke-width:0.5;stroke-linecap:butt;stroke-linejoin:round"
                   width="1"
                   height="1" />
              </g>
            </g>
            <g
               id="line2d_14-4"
               style="stroke-linecap:square;stroke-linejoin:round">
              <g
                 id="g5024"
                 style="stroke-linecap:square;stroke-linejoin:round">
                <use
                   id="use5026"
                   y="14.4"
                   xlink:href="#mdad270ee8e-1"
                   x="92.400002"
                   style="stroke:#000000;stroke-width:0.5;stroke-linecap:butt;stroke-linejoin:round"
                   width="1"
                   height="1" />
              </g>
            </g>
            <g
               id="text_5-8"
               style="stroke-linecap:square;stroke-linejoin:round">
              <!-- 2000 -->
              <defs
                 id="defs5029">
                <path
                   id="ArialMT-32-7"
                   d="M 50.3438,8.45312 50.3438,0 3.03125,0 q -0.09375,3.17188 1.01563,6.10938 1.8125,4.82812 5.78124,9.51562 3.98438,4.6875 11.51568,10.8438 11.6718,9.5624 15.7656,15.1562 4.1094,5.5938 4.1094,10.5781 0,5.2188 -3.75,8.7969 -3.7344,3.5938 -9.7344,3.5938 -6.3438,0 -10.1563,-3.8126 Q 13.7656,56.9844 13.7188,50.25 l -9.0313,0.9219 q 0.92188,10.1093 6.9687,15.4062 6.0626,5.2969 16.2813,5.2969 10.2969,0 16.2969,-5.7188 Q 50.25,60.4531 50.25,52 q 0,-4.2969 -1.7656,-8.4531 -1.75,-4.1407 -5.8282,-8.7344 Q 38.5781,30.2188 29.1094,22.2188 21.1875,15.5781 18.9375,13.2031 16.7031,10.8438 15.2344,8.45312 z"
                   inkscape:connector-curvature="0"
                   style="stroke-linecap:square;stroke-linejoin:round" />
              </defs>
              <g
                 id="g5032"
                 transform="matrix(0.1,0,0,-0.1,81.664062,140.7875)"
                 style="stroke-linecap:square;stroke-linejoin:round">
                <use
                   id="use5034"
                   xlink:href="#ArialMT-32-7"
                   style="stroke-linecap:square;stroke-linejoin:round"
                   x="0"
                   y="0"
                   width="1"
                   height="1" />
                <use
                   id="use5036"
                   xlink:href="#ArialMT-30-7"
                   x="55.615234"
                   style="stroke-linecap:square;stroke-linejoin:round"
                   y="0"
                   width="1"
                   height="1" />
                <use
                   id="use5038"
                   xlink:href="#ArialMT-30-7"
                   x="111.23047"
                   style="stroke-linecap:square;stroke-linejoin:round"
                   y="0"
                   width="1"
                   height="1" />
                <use
                   id="use5040"
                   xlink:href="#ArialMT-30-7"
                   x="166.8457"
                   style="stroke-linecap:square;stroke-linejoin:round"
                   y="0"
                   width="1"
                   height="1" />
              </g>
            </g>
          </g>
          <g
             id="xtick_6-4"
             style="stroke-linecap:square;stroke-linejoin:round">
            <g
               id="line2d_15-6"
               style="stroke-linecap:square;stroke-linejoin:round">
              <g
                 id="g5044"
                 style="stroke-linecap:square;stroke-linejoin:round">
                <use
                   id="use5046"
                   y="129.60001"
                   xlink:href="#mcb557df647-8"
                   x="111"
                   style="stroke:#000000;stroke-width:0.5;stroke-linecap:butt;stroke-linejoin:round"
                   width="1"
                   height="1" />
              </g>
            </g>
            <g
               id="line2d_16-0"
               style="stroke-linecap:square;stroke-linejoin:round">
              <g
                 id="g5049"
                 style="stroke-linecap:square;stroke-linejoin:round">
                <use
                   id="use5051"
                   y="14.4"
                   xlink:href="#mdad270ee8e-1"
                   x="111"
                   style="stroke:#000000;stroke-width:0.5;stroke-linecap:butt;stroke-linejoin:round"
                   width="1"
                   height="1" />
              </g>
            </g>
          </g>
          <g
             id="xtick_7-1"
             style="stroke-linecap:square;stroke-linejoin:round">
            <g
               id="line2d_17-0"
               style="stroke-linecap:square;stroke-linejoin:round">
              <g
                 id="g5066"
                 style="stroke-linecap:square;stroke-linejoin:round">
                <use
                   id="use5068"
                   y="129.60001"
                   xlink:href="#mcb557df647-8"
                   x="129.60001"
                   style="stroke:#000000;stroke-width:0.5;stroke-linecap:butt;stroke-linejoin:round"
                   width="1"
                   height="1" />
              </g>
            </g>
            <g
               id="line2d_18-9"
               style="stroke-linecap:square;stroke-linejoin:round">
              <g
                 id="g5071"
                 style="stroke-linecap:square;stroke-linejoin:round">
                <use
                   id="use5073"
                   y="14.4"
                   xlink:href="#mdad270ee8e-1"
                   x="129.60001"
                   style="stroke:#000000;stroke-width:0.5;stroke-linecap:butt;stroke-linejoin:round"
                   width="1"
                   height="1" />
              </g>
            </g>
            <g
               id="text_7-9"
               style="stroke-linecap:square;stroke-linejoin:round">
              <!-- 3000 -->
              <defs
                 id="defs5076">
                <path
                   id="ArialMT-33-2"
                   d="m 4.20312,18.8906 8.78128,1.1719 Q 14.5,12.5938 18.1406,9.29688 21.7812,6 27,6 q 6.2031,0 10.4688,4.2969 4.2812,4.2969 4.2812,10.6562 0,6.0469 -3.9531,9.9688 -3.9531,3.9375 -10.0625,3.9375 -2.4844,0 -6.2032,-0.9688 l 0.9844,7.7188 Q 23.3906,41.5 23.9219,41.5 q 5.625,0 10.1093,2.9219 4.5,2.9375 4.5,9.0469 0,4.8281 -3.2812,8 -3.2656,3.1874 -8.4375,3.1874 -5.125,0 -8.5469,-3.2343 -3.4218,-3.2188 -4.3906,-9.6563 l -8.79688,1.5625 q 1.60938,8.8281 7.31248,13.6875 5.7188,4.8594 14.2188,4.8594 5.8594,0 10.7812,-2.5156 4.9375,-2.5156 7.5469,-6.8594 2.625,-4.3438 2.625,-9.2344 0,-4.625 -2.5,-8.4375 -2.4844,-3.8125 -7.3594,-6.0625 6.3438,-1.4531 9.8594,-6.0781 3.5156,-4.6094 3.5156,-11.5469 0,-9.375 -6.8437,-15.8906 -6.8282,-6.51562 -17.2813,-6.51562 -9.4219,0 -15.6562,5.60937 -6.21878,5.625 -7.09378,14.54685"
                   inkscape:connector-curvature="0"
                   style="stroke-linecap:square;stroke-linejoin:round" />
              </defs>
              <g
                 id="g5079"
                 transform="matrix(0.1,0,0,-0.1,118.92734,140.7875)"
                 style="stroke-linecap:square;stroke-linejoin:round">
                <use
                   id="use5081"
                   xlink:href="#ArialMT-33-2"
                   style="stroke-linecap:square;stroke-linejoin:round"
                   x="0"
                   y="0"
                   width="1"
                   height="1" />
                <use
                   id="use5083"
                   xlink:href="#ArialMT-30-7"
                   x="55.615234"
                   style="stroke-linecap:square;stroke-linejoin:round"
                   y="0"
                   width="1"
                   height="1" />
                <use
                   id="use5085"
                   xlink:href="#ArialMT-30-7"
                   x="111.23047"
                   style="stroke-linecap:square;stroke-linejoin:round"
                   y="0"
                   width="1"
                   height="1" />
                <use
                   id="use5087"
                   xlink:href="#ArialMT-30-7"
                   x="166.8457"
                   style="stroke-linecap:square;stroke-linejoin:round"
                   y="0"
                   width="1"
                   height="1" />
              </g>
            </g>
          </g>
          <g
             id="text_8"
             style="stroke-linecap:square;stroke-linejoin:round">
            <!-- t -->
            <defs
               id="defs5090">
              <path
                 id="ArialMT-74"
                 d="m 25.7812,7.85938 1.2657,-7.76563 q -3.7031,-0.78125 -6.6407,-0.78125 -4.7812,0 -7.4218,1.515625 Q 10.3594,2.34375 9.28125,4.8125 8.20312,7.28125 8.20312,15.1875 l 0,29.8281 -6.4375,0 0,6.8438 6.4375,0 0,12.8437 8.73438,5.2657 0,-18.1094 8.8437,0 0,-6.8438 -8.8437,0 0,-30.3125 q 0,-3.7656 0.4687,-4.84372 0.4688,-1.0625 1.5157,-1.70313 1.0469,-0.64063 3,-0.64063 1.4687,0 3.8593,0.34376"
                 inkscape:connector-curvature="0"
                 style="stroke-linecap:square;stroke-linejoin:round" />
            </defs>
            <g
               id="g5093"
               transform="matrix(0.1,0,0,-0.1,72.535938,152.91094)"
               style="stroke-linecap:square;stroke-linejoin:round">
              <use
                 id="use5095"
                 xlink:href="#ArialMT-74"
                 style="stroke-linecap:square;stroke-linejoin:round"
                 x="0"
                 y="0"
                 width="1"
                 height="1" />
            </g>
          </g>
        </g>
        <g
           id="matplotlib.axis_2-2"
           style="stroke-linecap:square;stroke-linejoin:round">
          <g
             id="ytick_1-9"
             style="stroke-linecap:square;stroke-linejoin:round">
            <g
               id="line2d_19-9"
               style="stroke-linecap:square;stroke-linejoin:round">
              <defs
                 id="defs5100">
                <path
                   style="stroke:#000000;stroke-width:0.5;stroke-linecap:butt;stroke-linejoin:round"
                   id="mc8fcea1516-7"
                   d="M 0,0 4,0"
                   inkscape:connector-curvature="0" />
              </defs>
              <g
                 id="g5103"
                 style="stroke-linecap:square;stroke-linejoin:round">
                <use
                   id="use5105"
                   y="129.60001"
                   xlink:href="#mc8fcea1516-7"
                   x="18"
                   style="stroke:#000000;stroke-width:0.5;stroke-linecap:butt;stroke-linejoin:round"
                   width="1"
                   height="1" />
              </g>
            </g>
            <g
               id="line2d_20-9"
               style="stroke-linecap:square;stroke-linejoin:round">
              <defs
                 id="defs5108">
                <path
                   style="stroke:#000000;stroke-width:0.5;stroke-linecap:butt;stroke-linejoin:round"
                   id="m0d5b0a6425-9"
                   d="M 0,0 -4,0"
                   inkscape:connector-curvature="0" />
              </defs>
              <g
                 id="g5111"
                 style="stroke-linecap:square;stroke-linejoin:round">
                <use
                   id="use5113"
                   y="129.60001"
                   xlink:href="#m0d5b0a6425-9"
                   x="129.60001"
                   style="stroke:#000000;stroke-width:0.5;stroke-linecap:butt;stroke-linejoin:round"
                   width="1"
                   height="1" />
              </g>
            </g>
            <g
               id="text_9-4"
               style="stroke-linecap:square;stroke-linejoin:round">
              <!-- −0.4 -->
              <defs
                 id="defs5116">
                <path
                   id="ArialMT-2212-0"
                   d="m 52.8281,31.2031 -47.2656,0 0,8.2031 47.2656,0 z"
                   inkscape:connector-curvature="0"
                   style="stroke-linecap:square;stroke-linejoin:round" />
                <path
                   id="ArialMT-34-4"
                   d="m 32.3281,0 0,17.1406 -31.06248,0 0,8.0625 32.67188,46.375 7.1719,0 0,-46.375 9.6718,0 0,-8.0625 -9.6718,0 0,-17.1406 z m 0,25.2031 0,32.2657 L 9.90625,25.2031 z"
                   inkscape:connector-curvature="0"
                   style="stroke-linecap:square;stroke-linejoin:round" />
                <path
                   id="ArialMT-2e-5"
                   d="m 9.07812,0 0,10.0156 10.01568,0 0,-10.0156 z"
                   inkscape:connector-curvature="0"
                   style="stroke-linecap:square;stroke-linejoin:round" />
              </defs>
              <g
                 id="g5121"
                 transform="matrix(0.1,0,0,-0.1,-4.7015625,133.13281)"
                 style="stroke-linecap:square;stroke-linejoin:round">
                <use
                   id="use5123"
                   xlink:href="#ArialMT-2212-0"
                   style="stroke-linecap:square;stroke-linejoin:round"
                   x="0"
                   y="0"
                   width="1"
                   height="1" />
                <use
                   id="use5125"
                   xlink:href="#ArialMT-30-7"
                   x="58.398438"
                   style="stroke-linecap:square;stroke-linejoin:round"
                   y="0"
                   width="1"
                   height="1" />
                <use
                   id="use5127"
                   xlink:href="#ArialMT-2e-5"
                   x="114.01367"
                   style="stroke-linecap:square;stroke-linejoin:round"
                   y="0"
                   width="1"
                   height="1" />
                <use
                   id="use5129"
                   xlink:href="#ArialMT-34-4"
                   x="141.79688"
                   style="stroke-linecap:square;stroke-linejoin:round"
                   y="0"
                   width="1"
                   height="1" />
              </g>
            </g>
          </g>
          <g
             id="ytick_2-6"
             style="stroke-linecap:square;stroke-linejoin:round">
            <g
               id="line2d_21-0"
               style="stroke-linecap:square;stroke-linejoin:round">
              <g
                 id="g5133"
                 style="stroke-linecap:square;stroke-linejoin:round">
                <use
                   id="use5135"
                   y="106.56"
                   xlink:href="#mc8fcea1516-7"
                   x="18"
                   style="stroke:#000000;stroke-width:0.5;stroke-linecap:butt;stroke-linejoin:round"
                   width="1"
                   height="1" />
              </g>
            </g>
            <g
               id="line2d_22-6"
               style="stroke-linecap:square;stroke-linejoin:round">
              <g
                 id="g5138"
                 style="stroke-linecap:square;stroke-linejoin:round">
                <use
                   id="use5140"
                   y="106.56"
                   xlink:href="#m0d5b0a6425-9"
                   x="129.60001"
                   style="stroke:#000000;stroke-width:0.5;stroke-linecap:butt;stroke-linejoin:round"
                   width="1"
                   height="1" />
              </g>
            </g>
            <g
               id="text_10-6"
               style="stroke-linecap:square;stroke-linejoin:round">
              <!-- −0.3 -->
              <g
                 id="g5143"
                 transform="matrix(0.1,0,0,-0.1,-4.73125,110.09047)"
                 style="stroke-linecap:square;stroke-linejoin:round">
                <use
                   id="use5145"
                   xlink:href="#ArialMT-2212-0"
                   style="stroke-linecap:square;stroke-linejoin:round"
                   x="0"
                   y="0"
                   width="1"
                   height="1" />
                <use
                   id="use5147"
                   xlink:href="#ArialMT-30-7"
                   x="58.398438"
                   style="stroke-linecap:square;stroke-linejoin:round"
                   y="0"
                   width="1"
                   height="1" />
                <use
                   id="use5149"
                   xlink:href="#ArialMT-2e-5"
                   x="114.01367"
                   style="stroke-linecap:square;stroke-linejoin:round"
                   y="0"
                   width="1"
                   height="1" />
                <use
                   id="use5151"
                   xlink:href="#ArialMT-33-2"
                   x="141.79688"
                   style="stroke-linecap:square;stroke-linejoin:round"
                   y="0"
                   width="1"
                   height="1" />
              </g>
            </g>
          </g>
          <g
             id="ytick_3-4"
             style="stroke-linecap:square;stroke-linejoin:round">
            <g
               id="line2d_23-8"
               style="stroke-linecap:square;stroke-linejoin:round">
              <g
                 id="g5155"
                 style="stroke-linecap:square;stroke-linejoin:round">
                <use
                   id="use5157"
                   y="83.519997"
                   xlink:href="#mc8fcea1516-7"
                   x="18"
                   style="stroke:#000000;stroke-width:0.5;stroke-linecap:butt;stroke-linejoin:round"
                   width="1"
                   height="1" />
              </g>
            </g>
            <g
               id="line2d_24-4"
               style="stroke-linecap:square;stroke-linejoin:round">
              <g
                 id="g5160"
                 style="stroke-linecap:square;stroke-linejoin:round">
                <use
                   id="use5162"
                   y="83.519997"
                   xlink:href="#m0d5b0a6425-9"
                   x="129.60001"
                   style="stroke:#000000;stroke-width:0.5;stroke-linecap:butt;stroke-linejoin:round"
                   width="1"
                   height="1" />
              </g>
            </g>
            <g
               id="text_11-9"
               style="stroke-linecap:square;stroke-linejoin:round">
              <!-- −0.2 -->
              <g
                 id="g5165"
                 transform="matrix(0.1,0,0,-0.1,-4.6578125,87.052813)"
                 style="stroke-linecap:square;stroke-linejoin:round">
                <use
                   id="use5167"
                   xlink:href="#ArialMT-2212-0"
                   style="stroke-linecap:square;stroke-linejoin:round"
                   x="0"
                   y="0"
                   width="1"
                   height="1" />
                <use
                   id="use5169"
                   xlink:href="#ArialMT-30-7"
                   x="58.398438"
                   style="stroke-linecap:square;stroke-linejoin:round"
                   y="0"
                   width="1"
                   height="1" />
                <use
                   id="use5171"
                   xlink:href="#ArialMT-2e-5"
                   x="114.01367"
                   style="stroke-linecap:square;stroke-linejoin:round"
                   y="0"
                   width="1"
                   height="1" />
                <use
                   id="use5173"
                   xlink:href="#ArialMT-32-7"
                   x="141.79688"
                   style="stroke-linecap:square;stroke-linejoin:round"
                   y="0"
                   width="1"
                   height="1" />
              </g>
            </g>
          </g>
          <g
             id="ytick_4-6"
             style="stroke-linecap:square;stroke-linejoin:round">
            <g
               id="line2d_25-8"
               style="stroke-linecap:square;stroke-linejoin:round">
              <g
                 id="g5177"
                 style="stroke-linecap:square;stroke-linejoin:round">
                <use
                   id="use5179"
                   y="60.48"
                   xlink:href="#mc8fcea1516-7"
                   x="18"
                   style="stroke:#000000;stroke-width:0.5;stroke-linecap:butt;stroke-linejoin:round"
                   width="1"
                   height="1" />
              </g>
            </g>
            <g
               id="line2d_26-9"
               style="stroke-linecap:square;stroke-linejoin:round">
              <g
                 id="g5182"
                 style="stroke-linecap:square;stroke-linejoin:round">
                <use
                   id="use5184"
                   y="60.48"
                   xlink:href="#m0d5b0a6425-9"
                   x="129.60001"
                   style="stroke:#000000;stroke-width:0.5;stroke-linecap:butt;stroke-linejoin:round"
                   width="1"
                   height="1" />
              </g>
            </g>
            <g
               id="text_12-5"
               style="stroke-linecap:square;stroke-linejoin:round">
              <!-- −0.1 -->
              <g
                 id="g5187"
                 transform="matrix(0.1,0,0,-0.1,-3.3484375,64.012812)"
                 style="stroke-linecap:square;stroke-linejoin:round">
                <use
                   id="use5189"
                   xlink:href="#ArialMT-2212-0"
                   style="stroke-linecap:square;stroke-linejoin:round"
                   x="0"
                   y="0"
                   width="1"
                   height="1" />
                <use
                   id="use5191"
                   xlink:href="#ArialMT-30-7"
                   x="58.398438"
                   style="stroke-linecap:square;stroke-linejoin:round"
                   y="0"
                   width="1"
                   height="1" />
                <use
                   id="use5193"
                   xlink:href="#ArialMT-2e-5"
                   x="114.01367"
                   style="stroke-linecap:square;stroke-linejoin:round"
                   y="0"
                   width="1"
                   height="1" />
                <use
                   id="use5195"
                   xlink:href="#ArialMT-31-1"
                   x="141.79688"
                   style="stroke-linecap:square;stroke-linejoin:round"
                   y="0"
                   width="1"
                   height="1" />
              </g>
            </g>
          </g>
          <g
             id="ytick_5-5"
             style="stroke-linecap:square;stroke-linejoin:round">
            <g
               id="line2d_27-5"
               style="stroke-linecap:square;stroke-linejoin:round">
              <g
                 id="g5199"
                 style="stroke-linecap:square;stroke-linejoin:round">
                <use
                   id="use5201"
                   y="37.439999"
                   xlink:href="#mc8fcea1516-7"
                   x="18"
                   style="stroke:#000000;stroke-width:0.5;stroke-linecap:butt;stroke-linejoin:round"
                   width="1"
                   height="1" />
              </g>
            </g>
            <g
               id="line2d_28-5"
               style="stroke-linecap:square;stroke-linejoin:round">
              <g
                 id="g5204"
                 style="stroke-linecap:square;stroke-linejoin:round">
                <use
                   id="use5206"
                   y="37.439999"
                   xlink:href="#m0d5b0a6425-9"
                   x="129.60001"
                   style="stroke:#000000;stroke-width:0.5;stroke-linecap:butt;stroke-linejoin:round"
                   width="1"
                   height="1" />
              </g>
            </g>
            <g
               id="text_13-5"
               style="stroke-linecap:square;stroke-linejoin:round">
              <!-- 0.0 -->
              <g
                 id="g5209"
                 transform="matrix(0.1,0,0,-0.1,0.99375,40.972813)"
                 style="stroke-linecap:square;stroke-linejoin:round">
                <use
                   id="use5211"
                   xlink:href="#ArialMT-30-7"
                   style="stroke-linecap:square;stroke-linejoin:round"
                   x="0"
                   y="0"
                   width="1"
                   height="1" />
                <use
                   id="use5213"
                   xlink:href="#ArialMT-2e-5"
                   x="55.615234"
                   style="stroke-linecap:square;stroke-linejoin:round"
                   y="0"
                   width="1"
                   height="1" />
                <use
                   id="use5215"
                   xlink:href="#ArialMT-30-7"
                   x="83.398438"
                   style="stroke-linecap:square;stroke-linejoin:round"
                   y="0"
                   width="1"
                   height="1" />
              </g>
            </g>
          </g>
          <g
             id="ytick_6-8"
             style="stroke-linecap:square;stroke-linejoin:round">
            <g
               id="line2d_29-7"
               style="stroke-linecap:square;stroke-linejoin:round">
              <g
                 id="g5219"
                 style="stroke-linecap:square;stroke-linejoin:round">
                <use
                   id="use5221"
                   y="14.4"
                   xlink:href="#mc8fcea1516-7"
                   x="18"
                   style="stroke:#000000;stroke-width:0.5;stroke-linecap:butt;stroke-linejoin:round"
                   width="1"
                   height="1" />
              </g>
            </g>
            <g
               id="line2d_30-6"
               style="stroke-linecap:square;stroke-linejoin:round">
              <g
                 id="g5224"
                 style="stroke-linecap:square;stroke-linejoin:round">
                <use
                   id="use5226"
                   y="14.4"
                   xlink:href="#m0d5b0a6425-9"
                   x="129.60001"
                   style="stroke:#000000;stroke-width:0.5;stroke-linecap:butt;stroke-linejoin:round"
                   width="1"
                   height="1" />
              </g>
            </g>
            <g
               id="text_14-8"
               style="stroke-linecap:square;stroke-linejoin:round">
              <!-- 0.1 -->
              <g
                 id="g5229"
                 transform="matrix(0.1,0,0,-0.1,2.3515625,17.932812)"
                 style="stroke-linecap:square;stroke-linejoin:round">
                <use
                   id="use5231"
                   xlink:href="#ArialMT-30-7"
                   style="stroke-linecap:square;stroke-linejoin:round"
                   x="0"
                   y="0"
                   width="1"
                   height="1" />
                <use
                   id="use5233"
                   xlink:href="#ArialMT-2e-5"
                   x="55.615234"
                   style="stroke-linecap:square;stroke-linejoin:round"
                   y="0"
                   width="1"
                   height="1" />
                <use
                   id="use5235"
                   xlink:href="#ArialMT-31-1"
                   x="83.398438"
                   style="stroke-linecap:square;stroke-linejoin:round"
                   y="0"
                   width="1"
                   height="1" />
              </g>
            </g>
          </g>
          <g
             id="text_15"
             style="stroke-linecap:square;stroke-linejoin:round">
            <!-- p(t) -->
            <defs
               id="defs5238">
              <path
                 id="ArialMT-70"
                 d="m 6.59375,-19.875 0,71.7344 8.00005,0 0,-6.7344 q 2.8437,3.9531 6.4062,5.9219 3.5625,1.9843 8.6406,1.9843 6.6406,0 11.7188,-3.4218 5.0781,-3.4219 7.6562,-9.6563 2.5938,-6.2187 2.5938,-13.6406 0,-7.9531 -2.8594,-14.3281 Q 45.9062,5.60938 40.4531,2.21875 35.0156,-1.17188 29,-1.17188 q -4.3906,0 -7.8906,1.85938 Q 17.625,2.54688 15.375,5.375 l 0,-25.25 z m 7.95315,45.5156 q 0,-10.0156 4.0469,-14.7968 4.0624,-4.7813 9.8281,-4.7813 5.8593,0 10.0312,4.9531 4.1719,4.9532 4.1719,15.3594 0,9.9062 -4.0781,14.8281 -4.0781,4.9375 -9.7344,4.9375 -5.625,0 -9.9531,-5.25 -4.3125,-5.25 -4.3125,-15.25"
                 inkscape:connector-curvature="0"
                 style="stroke-linecap:square;stroke-linejoin:round" />
              <path
                 id="ArialMT-29"
                 d="m 12.3594,-21.0469 -6.2969,0 q 14.5937,23.43752 14.5937,46.9219 0,9.1875 -2.0937,18.2188 -1.6719,7.3281 -4.6406,14.0624 -1.9063,4.3907 -7.8594,14.6407 l 6.2969,0 q 9.1718,-12.25 13.5625,-24.6094 3.7656,-10.6406 3.7656,-22.2656 0,-13.1719 -5.0625,-25.4844 -5.0469,-12.2969 -12.2656,-21.4844"
                 inkscape:connector-curvature="0"
                 style="stroke-linecap:square;stroke-linejoin:round" />
              <path
                 id="ArialMT-28"
                 d="M 23.3906,-21.0469 Q 16.1094,-11.8594 11.0781,0.4375 6.0625,12.75 6.0625,25.9219 q 0,11.625 3.75,22.2656 4.3906,12.3594 13.5781,24.6094 l 6.2969,0 q -5.9063,-10.1563 -7.8125,-14.5 -2.9844,-6.7344 -4.6875,-14.0625 -2.0937,-9.125 -2.0937,-18.3594 0,-23.48438 14.5937,-46.9219 z"
                 inkscape:connector-curvature="0"
                 style="stroke-linecap:square;stroke-linejoin:round" />
            </defs>
            <g
               id="g5243"
               transform="matrix(0,-0.1,-0.1,0,-9.73125,76.884375)"
               style="stroke-linecap:square;stroke-linejoin:round">
              <use
                 id="use5245"
                 xlink:href="#ArialMT-70"
                 style="stroke-linecap:square;stroke-linejoin:round"
                 x="0"
                 y="0"
                 width="1"
                 height="1" />
              <use
                 id="use5247"
                 xlink:href="#ArialMT-28"
                 x="55.615234"
                 style="stroke-linecap:square;stroke-linejoin:round"
                 y="0"
                 width="1"
                 height="1" />
              <use
                 id="use5249"
                 xlink:href="#ArialMT-74"
                 x="88.916016"
                 style="stroke-linecap:square;stroke-linejoin:round"
                 y="0"
                 width="1"
                 height="1" />
              <use
                 id="use5251"
                 xlink:href="#ArialMT-29"
                 x="116.69922"
                 style="stroke-linecap:square;stroke-linejoin:round"
                 y="0"
                 width="1"
                 height="1" />
            </g>
          </g>
        </g>
        <g
           id="patch_3-0"
           style="stroke-linecap:square;stroke-linejoin:round">
          <path
             id="path5254"
             style="fill:none;stroke:#000000;stroke-linecap:square;stroke-linejoin:round"
             d="m 18,14.4 111.6,0"
             inkscape:connector-curvature="0" />
        </g>
        <g
           id="patch_4-8"
           style="stroke-linecap:square;stroke-linejoin:round">
          <path
             id="path5257"
             style="fill:none;stroke:#000000;stroke-linecap:square;stroke-linejoin:round"
             d="m 129.6,129.6 0,-115.2"
             inkscape:connector-curvature="0" />
        </g>
        <g
           id="patch_5"
           style="stroke-linecap:square;stroke-linejoin:round">
          <path
             id="path5260"
             style="fill:none;stroke:#000000;stroke-linecap:square;stroke-linejoin:round"
             d="m 18,129.6 111.6,0"
             inkscape:connector-curvature="0" />
        </g>
        <g
           id="patch_6-9"
           style="stroke-linecap:square;stroke-linejoin:round">
          <path
             id="path5263"
             style="fill:none;stroke:#000000;stroke-linecap:square;stroke-linejoin:round"
             d="M 18,129.6 18,14.4"
             inkscape:connector-curvature="0" />
        </g>
      </g>
    </g>
    <text
       xml:space="preserve"
       style="font-size:11.19999980999999956px;font-style:normal;font-variant:normal;font-weight:normal;font-stretch:normal;text-align:start;line-height:125%;writing-mode:lr-tb;text-anchor:start;fill:#000000;fill-opacity:1;stroke:none;font-family:Arial;-inkscape-font-specification:Arial"
       x="61.144341"
       y="114.63049"
       id="text3453"
       sodipodi:linespacing="125%"><tspan
         sodipodi:role="line"
         id="tspan3455"
         x="61.144341"
         y="114.63049"
         style="font-size:11.19999980999999956px;font-style:normal;font-variant:normal;font-weight:normal;font-stretch:normal;text-align:start;line-height:125%;writing-mode:lr-tb;text-anchor:start;font-family:Arial;-inkscape-font-specification:Arial;fill:#000000">t<tspan
   style="font-size:52.00042725000000132%;baseline-shift:sub;fill:#000000"
   id="tspan13764">0</tspan></tspan></text>
    <text
       xml:space="preserve"
       style="font-size:11.19999980999999956px;font-style:normal;font-variant:normal;font-weight:normal;font-stretch:normal;text-align:start;line-height:125%;writing-mode:lr-tb;text-anchor:start;fill:#000000;fill-opacity:1;stroke:none;font-family:Arial;-inkscape-font-specification:Arial"
       x="168.68266"
       y="146.39258"
       id="text3453-6"
       sodipodi:linespacing="125%"><tspan
         sodipodi:role="line"
         id="tspan3455-5"
         x="168.68266"
         y="146.39258">p<tspan
   style="font-size:52.00042725000000132%;baseline-shift:sub;fill:#000000"
   id="tspan13766">1</tspan></tspan></text>
    <text
       xml:space="preserve"
       style="font-size:11.19999980999999956px;font-style:normal;font-variant:normal;font-weight:normal;font-stretch:normal;text-align:start;line-height:125%;writing-mode:lr-tb;text-anchor:start;fill:#000000;fill-opacity:1;stroke:none;font-family:Arial;-inkscape-font-specification:Arial"
       x="168.68266"
       y="212.63309"
       id="text3453-6-9"
       sodipodi:linespacing="125%"><tspan
         sodipodi:role="line"
         id="tspan3455-5-6"
         x="168.68266"
         y="212.63309">p<tspan
   style="font-size:5.82404757000000028px;baseline-shift:sub;fill:#000000"
   id="tspan13768">2</tspan></tspan></text>
  </g>
  <defs
     id="defs469">
    <clipPath
       id="p0228377c71">
      <rect
         height="276.48001"
         width="267.84"
         x="43.200001"
         y="34.560001"
         id="rect472"
         style="stroke-linecap:square;stroke-linejoin:round" />
    </clipPath>
  </defs>
  <g
     style="stroke-linecap:square;stroke-linejoin:round"
     transform="matrix(0.4,0,0,0.4,-26.972069,-16.99125)"
     id="g11311">
    <g
       style="font-style:normal;font-variant:normal;font-weight:normal;font-stretch:normal;letter-spacing:normal;word-spacing:normal;text-anchor:start;fill:none;stroke:#000000;stroke-linecap:square;stroke-linejoin:round;stroke-miterlimit:10.43299961;stroke-opacity:1;stroke-dasharray:none;stroke-dashoffset:0"
       word-spacing="normal"
       letter-spacing="normal"
       font-size-adjust="none"
       font-stretch="normal"
       font-weight="normal"
       font-variant="normal"
       font-style="normal"
       stroke-miterlimit="10.433"
       xml:space="preserve"
       transform="matrix(0.61607143,0,0,-0.61607143,-107.8125,323.4375)"
       id="content"><path
         style="fill:#000000;stroke-width:0;stroke-linecap:square;stroke-linejoin:round"
         inkscape:connector-curvature="0"
         id="path11314"
         d="m 446.07625,419.49 0.02,0.11 0.02,0.11 0.03,0.11 0.03,0.11 0.03,0.12 0.03,0.12 0.06,0.25 0.06,0.25 0.06,0.25 0.06,0.25 0.06,0.24 0.03,0.12 0.03,0.11 0.03,0.11 0.02,0.11 0.03,0.11 0.02,0.1 0.02,0.09 0.02,0.09 0.02,0.08 0.02,0.08 0.01,0.07 0.01,0.07 0.01,0.05 0.01,0.05 0,0.04 0.01,0.04 c 0,0.9 -0.71,1.34 -1.46,1.34 -0.59,0 -1.48,-0.39 -1.83,-1.39 -0.15,-0.34 -2.5,-9.86 -2.84,-11.16 -0.36,-1.5 -0.45,-2.39 -0.45,-3.29 0,-0.55 0,-0.64 0.04,-0.89 -1.14,-2.64 -2.64,-4.19 -4.57,-4.19 -3.99,0 -3.99,3.69 -3.99,4.53 0,1.59 0.25,3.55 2.6,9.67 0.54,1.49 0.84,2.19 0.84,3.19 0,2.23 -1.64,4.08 -4.09,4.08 -4.74,0 -6.58,-7.22 -6.58,-7.67 0,-0.5 0.5,-0.5 0.61,-0.5 0.5,0 0.54,0.1 0.79,0.9 1.35,4.63 3.28,6.17 5.03,6.17 0.44,0 1.25,-0.04 1.25,-1.64 0,-1.25 -0.56,-2.64 -0.9,-3.48 -2.19,-5.88 -2.78,-8.17 -2.78,-10.06 0,-4.54 3.33,-6.29 7.06,-6.29 0.86,0 3.19,0 5.19,3.49 1.29,-3.19 4.73,-3.49 6.23,-3.49 3.74,0 5.92,3.15 7.22,6.13 1.69,3.89 3.28,10.56 3.28,12.95 0,2.75 -1.34,3.49 -2.19,3.49 -1.25,0 -2.48,-1.3 -2.48,-2.39 0,-0.64 0.3,-0.94 0.73,-1.35 0.55,-0.54 1.8,-1.84 1.8,-4.23 0,-1.69 -1.44,-6.58 -2.73,-9.11 -1.3,-2.64 -3.05,-4.39 -5.49,-4.39 -2.34,0 -3.69,1.5 -3.69,4.33 0,1.4 0.35,2.95 0.55,3.64 z" /><path
         style="fill:#000000;stroke-width:0;stroke-linecap:square;stroke-linejoin:round"
         inkscape:connector-curvature="0"
         id="path11316"
         d="m 474.30625,436.63 0,0.01 0,0 0,0.01 0,0.01 0,0.01 0,0.01 0,0.02 0,0.02 -0.01,0.02 0,0.02 -0.01,0.02 0,0.02 -0.01,0.03 -0.01,0.02 -0.01,0.02 -0.01,0.03 -0.02,0.02 -0.01,0.03 -0.02,0.02 -0.02,0.03 -0.02,0.02 -0.02,0.01 -0.01,0.01 -0.01,0.01 -0.01,0.01 -0.02,0.01 -0.01,0.01 -0.02,0.01 -0.02,0.01 -0.01,0.01 -0.02,0.01 -0.02,0.01 -0.02,0 -0.02,0.01 -0.02,0.01 -0.02,0 -0.03,0.01 -0.02,0 -0.02,0.01 -0.03,0 -0.02,0 -0.03,0.01 -0.03,0 -0.03,0 -0.03,0 c -1.15,0 -4.78,-0.41 -6.08,-0.5 -0.4,-0.05 -0.95,-0.09 -0.95,-1 0,-0.59 0.45,-0.59 1.2,-0.59 2.4,0 2.49,-0.35 2.49,-0.85 l -0.16,-1 -7.22,-28.7 c -0.2,-0.69 -0.2,-0.8 -0.2,-1.09 0,-1.15 1,-1.4 1.45,-1.4 0.8,0 1.6,0.6 1.85,1.3 l 0.94,3.78 1.1,4.49 c 0.3,1.09 0.6,2.18 0.85,3.34 0.09,0.3 0.5,1.94 0.55,2.24 0.14,0.45 1.68,3.25 3.39,4.59 1.09,0.8 2.64,1.73 4.78,1.73 2.14,0 2.68,-1.68 2.68,-3.48 0,-2.69 -1.89,-8.13 -3.09,-11.16 -0.39,-1.15 -0.64,-1.75 -0.64,-2.75 0,-2.33 1.73,-4.08 4.08,-4.08 4.69,0 6.53,7.27 6.53,7.68 0,0.5 -0.45,0.5 -0.59,0.5 -0.5,0 -0.5,-0.16 -0.75,-0.91 -0.75,-2.64 -2.35,-6.17 -5.08,-6.17 -0.86,0 -1.21,0.5 -1.21,1.64 0,1.25 0.46,2.45 0.91,3.55 0.8,2.14 3.03,8.06 3.03,10.95 0,3.23 -2,5.33 -5.73,5.33 -3.14,0 -5.53,-1.53 -7.38,-3.83 z" /><path
         style="fill:#000000;stroke-width:0;stroke-linecap:square;stroke-linejoin:round"
         inkscape:connector-curvature="0"
         id="path11318"
         d="m 498.00625,414.12 0.14,0 0.16,0 0.16,0 0.18,0 0.19,0.01 0.2,0 0.21,0.01 0.21,0.01 0.23,0.01 0.23,0.01 0.24,0.02 0.24,0.01 0.26,0.02 0.25,0.02 0.52,0.05 0.54,0.07 0.54,0.08 0.55,0.09 0.54,0.11 0.53,0.12 0.26,0.07 0.26,0.08 0.26,0.08 0.24,0.08 0.25,0.09 0.23,0.1 c 3.49,1.5 3.74,4.44 3.74,5.12 0,2.21 -1.89,4.24 -5.33,4.24 v -1.1 c 2.34,0 3.69,-1.43 3.69,-3.14 0,-5.17 -7.97,-5.17 -10.02,-5.17 h -2.05 c 1.96,7.56 7.08,8.31 8.38,8.31 v 1.1 c -5.53,0 -13.05,-4.83 -13.05,-13.55 0,-5.08 2.94,-9.02 7.82,-9.02 7.12,0 11.31,5.29 11.31,5.88 0,0.3 -0.3,0.66 -0.6,0.66 -0.25,0 -0.34,-0.11 -0.65,-0.5 -3.94,-4.94 -9.36,-4.94 -9.95,-4.94 -3.9,0 -4.35,4.19 -4.35,5.78 0,0.59 0.05,2.14 0.8,5.19 z" /><path
         style="fill:#000000;stroke-width:0;stroke-linecap:square;stroke-linejoin:round"
         inkscape:connector-curvature="0"
         id="path11320"
         d="m 516.23625,405.54 -0.01,-0.07 -0.02,-0.08 -0.01,-0.07 -0.02,-0.08 -0.04,-0.16 -0.03,-0.16 -0.04,-0.16 -0.04,-0.16 -0.04,-0.16 -0.03,-0.16 -0.02,-0.08 -0.02,-0.07 -0.01,-0.07 -0.02,-0.07 -0.01,-0.07 -0.02,-0.07 -0.01,-0.06 -0.01,-0.06 -0.01,-0.05 -0.01,-0.06 -0.01,-0.04 -0.01,-0.05 0,-0.04 -0.01,-0.03 0,-0.04 0,-0.02 c 0,-0.89 0.7,-1.35 1.44,-1.35 0.61,0 1.5,0.4 1.84,1.4 0.11,0.2 1.8,6.98 2,7.87 0.39,1.64 1.3,5.13 1.59,6.48 0.21,0.65 1.6,2.99 2.79,4.08 0.4,0.35 1.84,1.64 4,1.64 1.28,0 2.03,-0.59 2.07,-0.59 -1.48,-0.25 -2.57,-1.45 -2.57,-2.73 0,-0.8 0.54,-1.75 1.89,-1.75 1.34,0 2.73,1.14 2.73,2.93 0,1.75 -1.59,3.24 -4.12,3.24 -3.25,0 -5.44,-2.44 -6.39,-3.83 -0.4,2.23 -2.19,3.83 -4.54,3.83 -2.28,0 -3.23,-1.94 -3.68,-2.83 -0.89,-1.7 -1.55,-4.69 -1.55,-4.84 0,-0.5 0.5,-0.5 0.61,-0.5 0.5,0 0.55,0.06 0.84,1.15 0.85,3.53 1.85,5.92 3.64,5.92 0.85,0 1.55,-0.39 1.55,-2.28 0,-1.04 -0.16,-1.61 -0.8,-4.19 z" /><path
         style="fill:#000000;stroke-width:0;stroke-linecap:square;stroke-linejoin:round"
         inkscape:connector-curvature="0"
         id="path11322"
         d="m 545.03625,414.12 0.15,0 0.15,0 0.17,0 0.18,0 0.19,0.01 0.19,0 0.21,0.01 0.22,0.01 0.22,0.01 0.24,0.01 0.24,0.02 0.24,0.01 0.25,0.02 0.26,0.02 0.52,0.05 0.54,0.07 0.54,0.08 0.54,0.09 0.54,0.11 0.54,0.12 0.26,0.07 0.26,0.08 0.25,0.08 0.25,0.08 0.24,0.09 0.24,0.1 c 3.48,1.5 3.73,4.44 3.73,5.12 0,2.21 -1.89,4.24 -5.33,4.24 v -1.1 c 2.35,0 3.69,-1.43 3.69,-3.14 0,-5.17 -7.97,-5.17 -10.01,-5.17 h -2.05 c 1.95,7.56 7.08,8.31 8.37,8.31 v 1.1 c -5.53,0 -13.04,-4.83 -13.04,-13.55 0,-5.08 2.94,-9.02 7.81,-9.02 7.13,0 11.31,5.29 11.31,5.88 0,0.3 -0.29,0.66 -0.59,0.66 -0.25,0 -0.34,-0.11 -0.66,-0.5 -3.93,-4.94 -9.36,-4.94 -9.95,-4.94 -3.89,0 -4.34,4.19 -4.34,5.78 0,0.59 0.04,2.14 0.79,5.19 z" /><path
         style="fill:#000000;stroke-width:0;stroke-linecap:square;stroke-linejoin:round"
         inkscape:connector-curvature="0"
         id="path11324"
         d="m 601.61,422.52 h 4.69 c 0.98,0 1.48,0 1.48,1 0,0.55 -0.5,0.55 -1.38,0.55 H 602 c 1.8,7.08 2.05,8.08 2.05,8.38 0,0.84 -0.59,1.34 -1.44,1.34 -0.15,0 -1.54,-0.05 -2,-1.8 l -1.93,-7.92 h -4.69 c -1,0 -1.5,0 -1.5,-0.94 0,-0.61 0.41,-0.61 1.41,-0.61 h 4.37 c -3.58,-14.14 -3.78,-14.98 -3.78,-15.89 0,-2.68 1.89,-4.58 4.58,-4.58 5.08,0 7.92,7.27 7.92,7.68 0,0.5 -0.39,0.5 -0.59,0.5 -0.46,0 -0.5,-0.16 -0.75,-0.71 -2.15,-5.17 -4.79,-6.37 -6.47,-6.37 -1.05,0 -1.55,0.65 -1.55,2.3 0,1.18 0.09,1.54 0.3,2.39 z" /><path
         style="fill:#000000;stroke-width:0;stroke-linecap:square;stroke-linejoin:round"
         inkscape:connector-curvature="0"
         id="path11326"
         d="m 656.84,418.74 0.07,0.03 0.06,0.03 0.06,0.03 0.06,0.03 0.05,0.03 0.06,0.03 0.05,0.03 0.05,0.03 0.04,0.03 0.05,0.03 0.04,0.03 0.04,0.03 0.04,0.04 0.03,0.03 0.04,0.03 0.03,0.04 0.03,0.03 0.02,0.04 0.03,0.03 0.02,0.04 0.02,0.03 0.02,0.04 0.02,0.03 0.02,0.04 0.01,0.04 0.01,0.04 0.01,0.04 0.01,0.04 0.01,0.03 0,0.04 0,0.05 0,0.04 c 0,0.5 -0.2,0.79 -1,1.15 l -27.45,12.96 c -0.69,0.34 -0.89,0.34 -1,0.34 -0.59,0 -0.98,-0.45 -0.98,-1 0,-0.59 0.39,-0.84 0.93,-1.09 l 26.16,-12.32 -26.05,-12.29 c -1,-0.46 -1.04,-0.85 -1.04,-1.14 0,-0.57 0.43,-1 0.98,-1 0.16,0 0.25,0 0.91,0.34 z" /><path
         style="fill:#000000;stroke-width:0;stroke-linecap:square;stroke-linejoin:round"
         inkscape:connector-curvature="0"
         id="path11328"
         d="m 656.09,395.77 0.16,0 0.16,0 0.16,0.01 0.08,0 0.07,0.01 0.08,0.01 0.07,0 0.08,0.01 0.07,0.02 0.07,0.01 0.07,0.02 0.06,0.02 0.07,0.02 0.06,0.02 0.05,0.03 0.06,0.03 0.05,0.04 0.05,0.04 0.05,0.04 0.04,0.04 0.04,0.05 0.02,0.03 0.01,0.03 0.02,0.03 0.01,0.03 0.02,0.03 0.01,0.03 0.01,0.04 0.01,0.03 0.01,0.04 0.01,0.04 0.01,0.04 0,0.04 0.01,0.04 0,0.04 0,0.05 0,0.04 c 0,1 -1.04,1 -1.79,1 h -26.86 c -0.74,0 -1.78,0 -1.78,-1 0,-1 0.89,-1 1.73,-1 z" /><path
         style="fill:#000000;stroke-width:0;stroke-linecap:square;stroke-linejoin:round"
         inkscape:connector-curvature="0"
         id="path11330"
         d="m 686.21,422.52 h 4.69 c 0.98,0 1.48,0 1.48,1 0,0.55 -0.5,0.55 -1.39,0.55 h -4.39 c 1.8,7.08 2.05,8.08 2.05,8.38 0,0.84 -0.6,1.34 -1.44,1.34 -0.16,0 -1.55,-0.05 -2,-1.8 l -1.94,-7.92 h -4.68 c -1,0 -1.5,0 -1.5,-0.94 0,-0.61 0.4,-0.61 1.4,-0.61 h 4.38 c -3.58,-14.14 -3.78,-14.98 -3.78,-15.89 0,-2.68 1.89,-4.58 4.57,-4.58 5.08,0 7.93,7.27 7.93,7.68 0,0.5 -0.39,0.5 -0.6,0.5 -0.45,0 -0.5,-0.16 -0.75,-0.71 -2.14,-5.17 -4.78,-6.37 -6.47,-6.37 -1.04,0 -1.54,0.65 -1.54,2.3 0,1.18 0.09,1.54 0.29,2.39 z" /><path
         style="fill:#000000;stroke-width:0;stroke-linecap:square;stroke-linejoin:round"
         inkscape:connector-curvature="0"
         id="path11332"
         d="m 711.95,406.27 -0.01,0.71 -0.02,0.68 -0.03,0.66 -0.04,0.64 -0.06,0.62 -0.07,0.59 -0.09,0.58 -0.11,0.56 -0.13,0.55 -0.15,0.53 -0.17,0.51 -0.19,0.5 -0.21,0.49 -0.24,0.48 -0.26,0.47 -0.14,0.23 -0.15,0.23 c -1.08,1.61 -3.23,3 -6.03,3 -8.08,0 -8.08,-9.51 -8.08,-12.03 0,-2.5 0,-11.81 8.08,-11.81 v 0.98 c -1.59,0 -3.72,0.94 -4.42,3.8 -0.48,2.05 -0.48,4.9 -0.48,7.48 0,2.55 0,5.21 0.51,7.11 0.74,2.75 2.97,3.49 4.39,3.49 1.89,0 3.7,-1.14 4.33,-3.18 0.56,-1.87 0.59,-4.39 0.59,-7.42 0,-2.58 0,-5.15 -0.45,-7.34 -0.7,-3.17 -3.06,-3.94 -4.47,-3.94 h 0 v -0.98 c 8.1,0 8.1,9.31 8.1,11.81 z" /><path
         style="fill:#000000;stroke-width:0;stroke-linecap:square;stroke-linejoin:round"
         inkscape:connector-curvature="0"
         id="path11334"
         d="m 739.64,421.43 0,0.14 -0.01,0.13 -0.02,0.13 -0.02,0.13 -0.03,0.13 -0.04,0.12 -0.04,0.13 -0.05,0.12 -0.05,0.11 -0.06,0.12 -0.06,0.11 -0.07,0.1 -0.08,0.11 -0.07,0.1 -0.09,0.09 -0.08,0.09 -0.1,0.09 -0.09,0.09 -0.1,0.07 -0.11,0.08 -0.1,0.07 -0.11,0.06 -0.12,0.06 -0.11,0.05 -0.12,0.05 -0.13,0.04 -0.12,0.04 -0.13,0.03 -0.13,0.02 -0.13,0.02 -0.13,0.01 -0.14,0 c -1.44,0 -2.64,-1.19 -2.64,-2.64 0,-1.44 1.2,-2.64 2.64,-2.64 1.45,0 2.64,1.2 2.64,2.64 z" /><path
         style="fill:#000000;stroke-width:0;stroke-linecap:square;stroke-linejoin:round"
         inkscape:connector-curvature="0"
         id="path11336"
         d="m 739.64,405.24 0,0.14 -0.01,0.13 -0.02,0.13 -0.02,0.13 -0.03,0.13 -0.04,0.12 -0.04,0.12 -0.05,0.12 -0.05,0.12 -0.06,0.11 -0.06,0.11 -0.07,0.11 -0.08,0.1 -0.07,0.1 -0.09,0.1 -0.08,0.09 -0.1,0.09 -0.09,0.08 -0.1,0.08 -0.11,0.08 -0.1,0.07 -0.11,0.06 -0.12,0.06 -0.11,0.05 -0.12,0.05 -0.13,0.04 -0.12,0.04 -0.13,0.03 -0.13,0.02 -0.13,0.02 -0.13,0.01 -0.14,0 c -1.44,0 -2.64,-1.2 -2.64,-2.64 0,-1.44 1.2,-2.64 2.64,-2.64 1.45,0 2.64,1.2 2.64,2.64 z" /><path
         style="fill:#000000;stroke-width:0;stroke-linecap:square;stroke-linejoin:round"
         inkscape:connector-curvature="0"
         id="path11338"
         d="m 760.03,396.52 -0.03,-0.15 -0.04,-0.15 -0.03,-0.14 -0.04,-0.13 -0.03,-0.12 -0.03,-0.12 -0.04,-0.11 -0.03,-0.11 -0.04,-0.1 -0.04,-0.09 -0.04,-0.09 -0.05,-0.08 -0.05,-0.07 -0.05,-0.07 -0.06,-0.06 -0.06,-0.06 -0.07,-0.06 -0.07,-0.05 -0.08,-0.04 -0.09,-0.04 -0.09,-0.04 -0.11,-0.03 -0.1,-0.03 -0.12,-0.02 -0.13,-0.02 -0.06,-0.01 -0.07,-0.01 -0.07,-0.01 -0.08,0 -0.08,-0.01 -0.07,0 -0.09,-0.01 -0.08,0 -0.09,-0.01 -0.09,0 -0.09,0 -0.1,0 -0.09,0 -0.11,0 c -0.59,0 -1.14,0 -1.14,-0.94 0,-0.41 0.25,-0.61 0.64,-0.61 1.36,0 2.8,0.16 4.19,0.16 1.64,0 3.35,-0.16 4.94,-0.16 0.25,0 0.89,0 0.89,1 0,0.55 -0.5,0.55 -1.19,0.55 -2.5,0 -2.5,0.36 -2.5,0.79 0,0.61 2.1,8.72 2.45,9.97 0.65,-1.44 2.04,-3.19 4.58,-3.19 l -0.04,1.1 c -3.3,0 -3.94,4.14 -3.94,4.44 0,0.09 0,0.2 0.14,0.79 l 2.45,9.77 c 0.35,1.34 1.69,2.73 2.58,3.48 1.75,1.55 3.2,1.89 4.05,1.89 1.98,0 3.18,-1.73 3.18,-4.68 0,-2.94 -1.64,-8.66 -2.54,-10.57 -1.69,-3.48 -4.08,-5.12 -5.92,-5.12 l 0.04,-1.1 c 5.78,0 12,7.27 12,14.6 0,4.69 -2.82,7.97 -6.62,7.97 -2.49,0 -4.88,-1.78 -6.52,-3.74 -0.5,2.69 -2.64,3.74 -4.48,3.74 -2.3,0 -3.25,-1.94 -3.69,-2.83 -0.91,-1.7 -1.55,-4.69 -1.55,-4.84 0,-0.5 0.5,-0.5 0.6,-0.5 0.5,0 0.54,0.06 0.84,1.15 0.86,3.53 1.84,5.92 3.64,5.92 0.85,0 1.55,-0.39 1.55,-2.28 0,-1.15 -0.16,-1.7 -0.35,-2.54 z" /><path
         style="fill:#000000;stroke-width:0;stroke-linecap:square;stroke-linejoin:round"
         inkscape:connector-curvature="0"
         id="path11340"
         d="m 799.36,390.65 0,0.02 0,0.03 0,0.01 -0.01,0.02 0,0.01 0,0.02 -0.01,0.02 -0.01,0.01 -0.01,0.02 -0.01,0.02 -0.01,0.03 -0.01,0.02 -0.02,0.02 -0.02,0.03 -0.02,0.03 -0.02,0.03 -0.03,0.04 -0.03,0.03 -0.01,0.02 -0.02,0.02 -0.02,0.02 -0.01,0.02 -0.02,0.02 -0.02,0.03 -0.02,0.02 -0.03,0.02 -0.02,0.03 -0.02,0.03 -0.03,0.02 -0.02,0.03 -0.03,0.03 -0.03,0.03 -0.03,0.03 -0.03,0.03 -0.03,0.03 -0.03,0.03 -0.03,0.04 -0.04,0.03 -0.03,0.04 -0.04,0.04 -0.04,0.03 -0.03,0.04 c -6.22,6.28 -7.82,15.69 -7.82,23.31 0,8.68 1.89,17.35 8.02,23.57 0.64,0.61 0.64,0.7 0.64,0.86 0,0.34 -0.19,0.48 -0.48,0.48 -0.5,0 -4.99,-3.37 -7.93,-9.7 -2.54,-5.49 -3.14,-11.02 -3.14,-15.21 0,-3.89 0.55,-9.9 3.28,-15.54 2.99,-6.13 7.29,-9.36 7.79,-9.36 0.29,0 0.48,0.14 0.48,0.5 z" /><path
         style="fill:#000000;stroke-width:0;stroke-linecap:square;stroke-linejoin:round"
         inkscape:connector-curvature="0"
         id="path11342"
         d="m 812.46,422.52 h 4.69 c 0.98,0 1.48,0 1.48,1 0,0.55 -0.5,0.55 -1.39,0.55 h -4.39 c 1.8,7.08 2.05,8.08 2.05,8.38 0,0.84 -0.6,1.34 -1.44,1.34 -0.16,0 -1.55,-0.05 -2,-1.8 l -1.94,-7.92 h -4.69 c -1,0 -1.5,0 -1.5,-0.94 0,-0.61 0.41,-0.61 1.41,-0.61 h 4.37 c -3.58,-14.14 -3.78,-14.98 -3.78,-15.89 0,-2.68 1.89,-4.58 4.58,-4.58 5.08,0 7.92,7.27 7.92,7.68 0,0.5 -0.39,0.5 -0.59,0.5 -0.46,0 -0.5,-0.16 -0.75,-0.71 -2.14,-5.17 -4.78,-6.37 -6.47,-6.37 -1.05,0 -1.55,0.65 -1.55,2.3 0,1.18 0.1,1.54 0.3,2.39 z" /><path
         style="fill:#000000;stroke-width:0;stroke-linecap:square;stroke-linejoin:round"
         inkscape:connector-curvature="0"
         id="path11344"
         d="m 834.58,415.05 0,0.38 0,0.38 -0.01,0.39 -0.02,0.41 -0.04,0.84 -0.06,0.88 -0.08,0.92 -0.11,0.95 -0.13,0.98 -0.16,1 -0.2,1.02 -0.23,1.04 -0.27,1.05 -0.3,1.06 -0.35,1.06 -0.39,1.07 -0.22,0.53 -0.22,0.53 -0.24,0.53 -0.25,0.53 c -2.98,6.13 -7.27,9.36 -7.77,9.36 -0.29,0 -0.5,-0.19 -0.5,-0.48 0,-0.16 0,-0.25 0.94,-1.16 4.89,-4.92 7.74,-12.84 7.74,-23.27 0,-8.51 -1.85,-17.28 -8.03,-23.56 -0.65,-0.59 -0.65,-0.7 -0.65,-0.84 0,-0.3 0.21,-0.5 0.5,-0.5 0.5,0 4.97,3.39 7.93,9.72 2.53,5.47 3.12,11 3.12,15.18 z" /><path
         style="fill:#000000;stroke-width:0;stroke-linecap:square;stroke-linejoin:round"
         inkscape:connector-curvature="0"
         id="path11346"
         d="m 887.66,418.9 0.14,0 0.15,0 0.14,0 0.07,0.01 0.08,0 0.07,0.01 0.07,0.01 0.07,0.01 0.07,0.01 0.07,0.01 0.07,0.02 0.06,0.02 0.06,0.02 0.06,0.03 0.06,0.02 0.06,0.03 0.05,0.04 0.05,0.04 0.05,0.04 0.04,0.04 0.04,0.05 0.02,0.03 0.02,0.03 0.01,0.03 0.02,0.03 0.01,0.03 0.02,0.03 0.01,0.03 0.01,0.04 0.01,0.03 0.01,0.04 0.01,0.04 0,0.04 0.01,0.04 0,0.04 0,0.05 0,0.04 c 0,1 -0.95,1 -1.64,1 h -29.84 c -0.71,0 -1.64,0 -1.64,-1 0,-0.98 0.93,-0.98 1.68,-0.98 z" /><path
         style="fill:#000000;stroke-width:0;stroke-linecap:square;stroke-linejoin:round"
         inkscape:connector-curvature="0"
         id="path11348"
         d="m 887.71,409.23 0.07,0 0.06,0 0.14,0 0.14,0 0.07,0.01 0.07,0 0.07,0.01 0.07,0.01 0.06,0.01 0.07,0.01 0.07,0.01 0.06,0.02 0.07,0.02 0.06,0.02 0.06,0.03 0.06,0.02 0.05,0.04 0.05,0.03 0.05,0.04 0.05,0.04 0.04,0.05 0.02,0.02 0.02,0.03 0.02,0.03 0.02,0.02 0.01,0.03 0.02,0.03 0.01,0.03 0.02,0.04 0.01,0.03 0.01,0.04 0.01,0.03 0.01,0.04 0.01,0.04 0,0.04 0.01,0.04 0,0.05 0,0.04 0,0.05 c 0,1 -0.95,1 -1.69,1 h -29.75 c -0.75,0 -1.68,0 -1.68,-1 0,-1 0.93,-1 1.64,-1 z" /><path
         style="fill:#000000;stroke-width:0;stroke-linecap:square;stroke-linejoin:round"
         inkscape:connector-curvature="0"
         id="path11350"
         d="m 915.3,414.12 0.14,0 0.15,0 0.17,0 0.18,0 0.19,0.01 0.2,0 0.21,0.01 0.21,0.01 0.23,0.01 0.23,0.01 0.24,0.02 0.24,0.01 0.25,0.02 0.26,0.02 0.52,0.05 0.54,0.07 0.54,0.08 0.55,0.09 0.54,0.11 0.53,0.12 0.26,0.07 0.26,0.08 0.25,0.08 0.25,0.08 0.25,0.09 0.23,0.1 c 3.49,1.5 3.74,4.44 3.74,5.12 0,2.21 -1.89,4.24 -5.33,4.24 v -1.1 c 2.34,0 3.69,-1.43 3.69,-3.14 0,-5.17 -7.97,-5.17 -10.02,-5.17 h -2.05 c 1.96,7.56 7.08,8.31 8.38,8.31 v 1.1 c -5.53,0 -13.05,-4.83 -13.05,-13.55 0,-5.08 2.94,-9.02 7.81,-9.02 7.13,0 11.32,5.29 11.32,5.88 0,0.3 -0.3,0.66 -0.6,0.66 -0.25,0 -0.34,-0.11 -0.65,-0.5 -3.94,-4.94 -9.36,-4.94 -9.96,-4.94 -3.89,0 -4.34,4.19 -4.34,5.78 0,0.59 0.05,2.14 0.8,5.19 z" /><path
         style="fill:#000000;stroke-width:0;stroke-linecap:square;stroke-linejoin:round"
         inkscape:connector-curvature="0"
         id="path11352"
         d="m 957.08,444.97 0.04,0 0.04,0 0.04,0 0.04,0 0.04,0.01 0.05,0 0.04,0 0.05,0 0.04,0.01 0.05,0 0.04,0.01 0.04,0.01 0.05,0.01 0.04,0.01 0.05,0.02 0.04,0.01 0.04,0.02 0.04,0.02 0.04,0.02 0.03,0.02 0.04,0.03 0.03,0.03 0.03,0.03 0.01,0.02 0.02,0.02 0.01,0.02 0.01,0.02 0.01,0.02 0.01,0.02 0.01,0.02 0.01,0.03 0.01,0.02 0.01,0.02 0.01,0.03 0,0.03 0.01,0.02 0,0.03 0.01,0.03 0,0.03 0,0.03 0,0.04 c 0,0.68 -0.69,0.68 -1.08,0.68 h -16.86 c -0.4,0 -1.07,0 -1.07,-0.68 0,-0.71 0.67,-0.71 1.07,-0.71 z" /><path
         style="fill:#000000;stroke-width:0;stroke-linecap:square;stroke-linejoin:round"
         inkscape:connector-curvature="0"
         id="path11354"
         d="m 969.98,449.05 h 2.94 c 0.52,0 0.55,0.03 0.67,0.13 0.13,0.11 0.21,0.42 0.21,0.57 0,0.43 -0.38,0.43 -0.8,0.43 h -2.75 l 0.53,2.06 c 0.14,0.65 0.44,1.78 0.44,1.92 0,0.42 -0.31,0.88 -0.92,0.88 -0.42,0 -1.02,-0.29 -1.22,-0.96 -0.13,-0.42 0.17,0.75 -1,-3.9 h -2.96 c -0.5,0 -0.87,0 -0.87,-0.71 0,-0.42 0.34,-0.42 0.8,-0.42 h 2.76 l -1.47,-5.84 c -0.12,-0.55 -0.32,-1.33 -0.32,-1.63 0,-1.42 1.32,-2.42 3.06,-2.42 3.01,0 4.86,3.38 4.86,3.88 0,0.34 -0.42,0.34 -0.52,0.34 -0.4,0 -0.45,-0.09 -0.58,-0.42 -0.82,-1.8 -2.37,-2.94 -3.65,-2.94 -0.8,0 -1.05,0.56 -1.05,1.31 0,0.41 0.02,0.47 0.06,0.71 z" /><path
         style="fill:#000000;stroke-width:0;stroke-linecap:square;stroke-linejoin:round"
         inkscape:connector-curvature="0"
         id="path11356"
         d="m 989.7,444.97 h 8.67 c 0.33,0 1,0 1,0.71 0,0.68 -0.67,0.68 -1,0.68 h -8.67 v 8.68 c 0,0.34 0,1.01 -0.71,1.01 -0.69,0 -0.69,-0.67 -0.69,-1.01 v -8.68 h -8.7 c -0.31,0 -0.98,0 -0.98,-0.68 0,-0.71 0.67,-0.71 0.98,-0.71 h 8.7 v -8.67 c 0,-0.34 0,-1.01 0.69,-1.01 0.71,0 0.71,0.67 0.71,1.01 z" /><path
         style="fill:#000000;stroke-width:0;stroke-linecap:square;stroke-linejoin:round"
         inkscape:connector-curvature="0"
         id="path11358"
         d="m 1009.6,449.05 h 2.9 c 0.5,0 0.6,0.03 0.7,0.13 0.1,0.11 0.2,0.42 0.2,0.57 0,0.43 -0.4,0.43 -0.8,0.43 h -2.8 l 0.6,2.06 c 0.1,0.65 0.4,1.78 0.4,1.92 0,0.42 -0.3,0.88 -0.9,0.88 -0.4,0 -1,-0.29 -1.2,-0.96 -0.2,-0.42 0.1,0.75 -1,-3.9 h -3 c -0.5,0 -0.9,0 -0.9,-0.71 0,-0.42 0.4,-0.42 0.8,-0.42 h 2.8 l -1.5,-5.84 c -0.1,-0.55 -0.3,-1.33 -0.3,-1.63 0,-1.42 1.3,-2.42 3.1,-2.42 3,0 4.8,3.38 4.8,3.88 0,0.34 -0.4,0.34 -0.5,0.34 -0.4,0 -0.4,-0.09 -0.6,-0.42 -0.8,-1.8 -2.3,-2.94 -3.6,-2.94 -0.8,0 -1.1,0.56 -1.1,1.31 0,0.41 0.1,0.47 0.1,0.71 z" /><path
         style="fill:#000000;stroke-width:0;stroke-linecap:square;stroke-linejoin:round"
         inkscape:connector-curvature="0"
         id="path11360"
         d="m 1030.8,439.85 0,0.18 0,0.21 0,0.24 0,0.25 -0.1,0.28 0,0.3 0,0.32 0,0.32 -0.1,0.34 0,0.35 -0.1,0.36 -0.1,0.37 -0.1,0.36 -0.1,0.37 -0.1,0.37 -0.1,0.36 -0.2,0.36 -0.2,0.36 -0.2,0.34 -0.2,0.33 -0.3,0.31 -0.2,0.3 -0.2,0.15 -0.1,0.14 -0.2,0.13 -0.2,0.13 -0.1,0.12 -0.2,0.12 -0.2,0.11 -0.2,0.1 -0.2,0.1 -0.2,0.09 -0.3,0.08 -0.2,0.08 -0.2,0.06 -0.3,0.06 -0.2,0.05 -0.3,0.05 -0.3,0.03 -0.2,0.02 -0.3,0.02 -0.3,0 v -0.83 c 1.8,0 3.1,-0.93 3.6,-2.68 0.4,-1.27 0.4,-3.35 0.4,-4.82 0,-1.68 0,-3.7 -0.4,-5.2 -0.7,-2.42 -2.6,-2.78 -3.6,-2.78 h 0 c -1,0 -3.1,0.31 -3.7,2.83 -0.3,1.34 -0.4,3.12 -0.4,5.15 0,1.85 0,3.57 0.5,4.99 0.6,2.09 2.5,2.51 3.6,2.51 v 0.83 c -6.5,0 -6.5,-6.83 -6.5,-8.62 0,-1.81 0,-8.52 6.5,-8.52 6.5,0 6.5,6.71 6.5,8.52 z" /><polyline
         style="fill:#000000;fill-rule:nonzero;stroke-width:0;stroke-linecap:square;stroke-linejoin:round"
         id="polyline11362"
         points="935,429 1035.2,429 1035.2,430.8 935,430.8 " /><path
         style="fill:#000000;stroke-width:0;stroke-linecap:square;stroke-linejoin:round"
         inkscape:connector-curvature="0"
         id="path11364"
         d="m 989.43,418.02 -0.04,-0.01 -0.04,-0.01 -0.04,-0.02 -0.04,-0.01 -0.03,-0.01 -0.04,-0.02 -0.06,-0.03 -0.07,-0.04 -0.05,-0.03 -0.06,-0.04 -0.05,-0.04 -0.05,-0.04 -0.04,-0.05 -0.05,-0.04 -0.03,-0.05 -0.04,-0.04 -0.03,-0.05 -0.03,-0.05 -0.03,-0.04 -0.02,-0.05 -0.03,-0.05 -0.02,-0.04 -0.01,-0.05 -0.02,-0.04 -0.01,-0.05 -0.02,-0.04 -0.01,-0.04 0,-0.04 -0.01,-0.04 -0.01,-0.04 0,-0.03 -0.01,-0.03 0,-0.03 0,-0.03 0,-0.03 c 0,-0.62 0.52,-0.89 0.94,-0.89 0.3,0 1.33,0.22 1.33,1.53 0,1.68 -1.97,2.21 -3.85,2.21 -4.2,0 -5,-2.58 -5,-3.47 0,-0.89 0.52,-1.42 0.97,-1.77 0.69,-0.5 1.44,-0.59 2.77,-0.83 1.56,-0.25 3.31,-0.51 3.31,-1.79 0,-0.02 0,-2.58 -4.59,-2.58 -0.94,0 -2.49,0.06 -3.29,0.84 0.9,0.21 1.3,0.93 1.3,1.52 0,0.7 -0.53,1.01 -1.08,1.01 -0.84,0 -1.59,-0.67 -1.59,-1.78 0,-2.45 3.89,-2.45 4.61,-2.45 5.11,0 5.98,2.95 5.98,3.97 0,2.23 -2.73,2.67 -4.03,2.89 -1.78,0.27 -3,0.47 -3,1.5 0,0.02 0,2.08 3.6,2.08 0.64,0 1.96,-0.05 2.61,-0.74 z" /><path
         style="fill:#000000;stroke-width:0;stroke-linecap:square;stroke-linejoin:round"
         inkscape:connector-curvature="0"
         id="path11366"
         d="m 1064.4,415.05 0,0.14 -0.1,0.13 0,0.14 0,0.13 0,0.12 -0.1,0.13 0,0.12 0,0.12 -0.1,0.12 -0.1,0.11 0,0.11 -0.1,0.11 -0.1,0.1 0,0.1 -0.1,0.1 -0.1,0.09 -0.1,0.09 -0.1,0.08 -0.1,0.08 -0.1,0.07 -0.1,0.07 -0.1,0.07 -0.1,0.05 -0.2,0.06 -0.1,0.04 -0.1,0.05 -0.1,0.03 -0.1,0.03 -0.2,0.02 -0.1,0.02 -0.1,0.01 -0.2,0.01 c -1.4,0 -2.6,-1.19 -2.6,-2.65 0,-1.43 1.2,-2.64 2.6,-2.64 1.5,0 2.7,1.21 2.7,2.64 z" /><path
         style="fill:#000000;stroke-width:0;stroke-linecap:square;stroke-linejoin:round"
         inkscape:connector-curvature="0"
         id="path11368"
         d="m 1096.1,390.65 0,0.02 0,0.03 0,0.01 0,0.02 0,0.01 0,0.02 0,0.02 0,0.01 0,0.02 0,0.02 0,0.03 -0.1,0.02 0,0.02 0,0.03 0,0.03 0,0.03 -0.1,0.04 0,0.03 0,0.02 0,0.02 0,0.02 -0.1,0.02 0,0.02 0,0.03 0,0.02 0,0.02 -0.1,0.03 0,0.03 0,0.02 0,0.03 -0.1,0.03 0,0.03 0,0.03 0,0.03 -0.1,0.03 0,0.03 0,0.04 -0.1,0.03 0,0.04 0,0.04 -0.1,0.03 0,0.04 c -6.2,6.28 -7.8,15.69 -7.8,23.31 0,8.68 1.9,17.35 8,23.57 0.6,0.61 0.6,0.7 0.6,0.86 0,0.34 -0.2,0.48 -0.5,0.48 -0.5,0 -4.9,-3.37 -7.9,-9.7 -2.5,-5.49 -3.1,-11.02 -3.1,-15.21 0,-3.89 0.5,-9.9 3.3,-15.54 2.9,-6.13 7.2,-9.36 7.7,-9.36 0.3,0 0.5,0.14 0.5,0.5 z" /><path
         style="fill:#000000;stroke-width:0;stroke-linecap:square;stroke-linejoin:round"
         inkscape:connector-curvature="0"
         id="path11370"
         d="m 1101.2,396.52 0,-0.15 -0.1,-0.15 0,-0.14 0,-0.13 -0.1,-0.12 0,-0.12 0,-0.11 -0.1,-0.11 0,-0.1 -0.1,-0.09 0,-0.09 -0.1,-0.08 0,-0.07 -0.1,-0.07 0,-0.06 -0.1,-0.06 0,-0.06 -0.1,-0.05 -0.1,-0.04 -0.1,-0.04 -0.1,-0.04 -0.1,-0.03 -0.1,-0.03 -0.1,-0.02 -0.1,-0.02 -0.1,-0.01 -0.1,-0.01 0,-0.01 -0.1,0 -0.1,-0.01 -0.1,0 -0.1,-0.01 0,0 -0.1,-0.01 -0.1,0 -0.1,0 -0.1,0 -0.1,0 -0.1,0 c -0.6,0 -1.1,0 -1.1,-0.94 0,-0.41 0.2,-0.61 0.6,-0.61 1.4,0 2.8,0.16 4.2,0.16 1.6,0 3.3,-0.16 4.9,-0.16 0.3,0 0.9,0 0.9,1 0,0.55 -0.5,0.55 -1.2,0.55 -2.5,0 -2.5,0.36 -2.5,0.79 0,0.61 2.1,8.72 2.5,9.97 0.6,-1.44 2,-3.19 4.6,-3.19 l -0.1,1.1 c -3.3,0 -3.9,4.14 -3.9,4.44 0,0.09 0,0.2 0.1,0.79 l 2.5,9.77 c 0.3,1.34 1.7,2.73 2.6,3.48 1.7,1.55 3.2,1.89 4,1.89 2,0 3.2,-1.73 3.2,-4.68 0,-2.94 -1.7,-8.66 -2.6,-10.57 -1.6,-3.48 -4,-5.12 -5.9,-5.12 l 0.1,-1.1 c 5.7,0 12,7.27 12,14.6 0,4.69 -2.9,7.97 -6.7,7.97 -2.5,0 -4.8,-1.78 -6.5,-3.74 -0.5,2.69 -2.6,3.74 -4.5,3.74 -2.3,0 -3.2,-1.94 -3.6,-2.83 -1,-1.7 -1.6,-4.69 -1.6,-4.84 0,-0.5 0.5,-0.5 0.6,-0.5 0.5,0 0.5,0.06 0.8,1.15 0.9,3.53 1.9,5.92 3.7,5.92 0.8,0 1.5,-0.39 1.5,-2.28 0,-1.15 -0.1,-1.7 -0.3,-2.54 z" /><path
         style="fill:#000000;stroke-width:0;stroke-linecap:square;stroke-linejoin:round"
         inkscape:connector-curvature="0"
         id="path11372"
         d="m 1135.7,417.32 0,0.04 0,0.04 0,0.04 0,0.04 0,0.04 0,0.04 0,0.04 0,0.03 0,0.04 0,0.03 0,0.03 0,0.03 0,0.03 0,0.03 0,0.03 0,0.02 0,0.03 0,0.02 0,0.02 0,0.03 0,0.04 -0.1,0.04 0,0.03 0,0.03 0,0.03 0,0.03 -0.1,0.02 0,0.02 0,0.02 -0.1,0.01 0,0.01 -0.1,0.01 0,0.01 0,0 0,0.01 -0.1,0 0,0 0,0.01 0,0 -0.1,0 0,0 0,0.01 -0.1,0 0,0 0,0 -0.1,0 0,0 -0.1,0 0,0 0,0 -0.1,0 0,0 c -2.3,-2.2 -5.4,-2.23 -6.9,-2.23 v -1.25 c 0.9,0 3.2,0 5.1,0.97 v -17.77 c 0,-1.16 0,-1.61 -3.5,-1.61 h -1.3 v -1.25 c 0.6,0.03 4.9,0.14 6.2,0.14 1.1,0 5.5,-0.11 6.2,-0.14 v 1.25 h -1.3 c -3.5,0 -3.5,0.45 -3.5,1.61 z" /><path
         style="fill:#000000;stroke-width:0;stroke-linecap:square;stroke-linejoin:round"
         inkscape:connector-curvature="0"
         id="path11374"
         d="m 1190.3,414.05 0.2,0.01 0.2,0 0.1,0 0.1,0.01 0.1,0 0.1,0.01 0,0.01 0.1,0.01 0.1,0.01 0,0.01 0.1,0.02 0.1,0.02 0,0.02 0.1,0.02 0.1,0.03 0,0.03 0.1,0.04 0,0.04 0.1,0.04 0,0.05 0,0.05 0.1,0.02 0,0.03 0,0.03 0,0.03 0,0.03 0,0.04 0,0.03 0.1,0.03 0,0.04 0,0.04 0,0.04 0,0.04 0,0.04 0,0.04 0,0.05 0,0.04 c 0,1 -0.9,1 -1.8,1 h -26.9 c -0.8,0 -1.7,0 -1.7,-1 0,-1 0.9,-1 1.7,-1 z" /><path
         style="fill:#000000;stroke-width:0;stroke-linecap:square;stroke-linejoin:round"
         inkscape:connector-curvature="0"
         id="path11376"
         d="m 1209.6,396.52 -0.1,-0.15 0,-0.15 -0.1,-0.14 0,-0.13 0,-0.12 -0.1,-0.12 0,-0.11 0,-0.11 -0.1,-0.1 0,-0.09 0,-0.09 -0.1,-0.08 0,-0.07 -0.1,-0.07 0,-0.06 -0.1,-0.06 -0.1,-0.06 -0.1,-0.05 0,-0.04 -0.1,-0.04 -0.1,-0.04 -0.1,-0.03 -0.1,-0.03 -0.1,-0.02 -0.2,-0.02 0,-0.01 -0.1,-0.01 -0.1,-0.01 -0.1,0 0,-0.01 -0.1,0 -0.1,-0.01 -0.1,0 -0.1,-0.01 0,0 -0.1,0 -0.1,0 -0.1,0 -0.1,0 c -0.6,0 -1.2,0 -1.2,-0.94 0,-0.41 0.3,-0.61 0.7,-0.61 1.3,0 2.8,0.16 4.2,0.16 1.6,0 3.3,-0.16 4.9,-0.16 0.2,0 0.9,0 0.9,1 0,0.55 -0.5,0.55 -1.2,0.55 -2.5,0 -2.5,0.36 -2.5,0.79 0,0.61 2.1,8.72 2.4,9.97 0.7,-1.44 2.1,-3.19 4.6,-3.19 l 0,1.1 c -3.3,0 -4,4.14 -4,4.44 0,0.09 0,0.2 0.2,0.79 l 2.4,9.77 c 0.4,1.34 1.7,2.73 2.6,3.48 1.8,1.55 3.2,1.89 4.1,1.89 1.9,0 3.1,-1.73 3.1,-4.68 0,-2.94 -1.6,-8.66 -2.5,-10.57 -1.7,-3.48 -4.1,-5.12 -5.9,-5.12 l 0,-1.1 c 5.8,0 12,7.27 12,14.6 0,4.69 -2.8,7.97 -6.6,7.97 -2.5,0 -4.9,-1.78 -6.5,-3.74 -0.5,2.69 -2.7,3.74 -4.5,3.74 -2.3,0 -3.3,-1.94 -3.7,-2.83 -0.9,-1.7 -1.5,-4.69 -1.5,-4.84 0,-0.5 0.5,-0.5 0.6,-0.5 0.5,0 0.5,0.06 0.8,1.15 0.9,3.53 1.8,5.92 3.6,5.92 0.9,0 1.6,-0.39 1.6,-2.28 0,-1.15 -0.2,-1.7 -0.4,-2.54 z" /><path
         style="fill:#000000;stroke-width:0;stroke-linecap:square;stroke-linejoin:round"
         inkscape:connector-curvature="0"
         id="path11378"
         d="m 1250,401.5 h -1.2 c -0.1,-0.76 -0.5,-2.82 -0.9,-3.17 -0.3,-0.2 -3,-0.2 -3.4,-0.2 h -6.5 c 3.7,3.23 4.9,4.2 7,5.84 2.6,2.07 5,4.22 5,7.53 0,4.22 -3.7,6.8 -8.2,6.8 -4.3,0 -7.2,-3.03 -7.2,-6.23 0,-1.78 1.5,-1.96 1.8,-1.96 0.9,0 1.9,0.6 1.9,1.85 0,0.62 -0.3,1.84 -2.1,1.84 1.1,2.47 3.5,3.24 5.1,3.24 3.5,0 5.3,-2.71 5.3,-5.54 0,-3.03 -2.1,-5.43 -3.3,-6.68 l -8.4,-8.3 c -0.3,-0.31 -0.3,-0.39 -0.3,-1.36 h 14.3 z" /><path
         style="fill:#000000;stroke-width:0;stroke-linecap:square;stroke-linejoin:round"
         inkscape:connector-curvature="0"
         id="path11380"
         d="m 1269.1,415.05 0,0.38 0,0.38 0,0.39 0,0.41 -0.1,0.84 0,0.88 -0.1,0.92 -0.1,0.95 -0.1,0.98 -0.2,1 -0.2,1.02 -0.2,1.04 -0.3,1.05 -0.3,1.06 -0.4,1.06 -0.3,1.07 -0.3,0.53 -0.2,0.53 -0.2,0.53 -0.3,0.53 c -3,6.13 -7.2,9.36 -7.7,9.36 -0.3,0 -0.5,-0.19 -0.5,-0.48 0,-0.16 0,-0.25 0.9,-1.16 4.9,-4.92 7.7,-12.84 7.7,-23.27 0,-8.51 -1.8,-17.28 -8,-23.56 -0.6,-0.59 -0.6,-0.7 -0.6,-0.84 0,-0.3 0.2,-0.5 0.5,-0.5 0.5,0 4.9,3.39 7.9,9.72 2.5,5.47 3.1,11 3.1,15.18 z" /><path
         style="fill:#000000;stroke-width:0;stroke-linecap:square;stroke-linejoin:round"
         inkscape:connector-curvature="0"
         id="path11382"
         d="m 1305.6,414.05 h 13.9 c 0.7,0 1.6,0 1.6,1 0,1 -0.9,1 -1.6,1 h -13.9 v 13.96 c 0,0.69 0,1.64 -1,1.64 -1,0 -1,-0.95 -1,-1.64 v -13.96 h -14 c -0.7,0 -1.6,0 -1.6,-1 0,-1 0.9,-1 1.6,-1 h 14 v -13.93 c 0,-0.71 0,-1.66 1,-1.66 1,0 1,0.95 1,1.66 z" /><path
         style="fill:#000000;stroke-width:0;stroke-linecap:square;stroke-linejoin:round"
         inkscape:connector-curvature="0"
         id="path11384"
         d="m 1337.2,396.52 0,-0.15 0,-0.15 -0.1,-0.14 0,-0.13 0,-0.12 -0.1,-0.12 0,-0.11 0,-0.11 -0.1,-0.1 0,-0.09 -0.1,-0.09 0,-0.08 -0.1,-0.07 0,-0.07 -0.1,-0.06 0,-0.06 -0.1,-0.06 -0.1,-0.05 -0.1,-0.04 0,-0.04 -0.1,-0.04 -0.1,-0.03 -0.1,-0.03 -0.2,-0.02 -0.1,-0.02 -0.1,-0.01 0,-0.01 -0.1,-0.01 -0.1,0 0,-0.01 -0.1,0 -0.1,-0.01 -0.1,0 -0.1,-0.01 -0.1,0 -0.1,0 -0.1,0 -0.1,0 -0.1,0 c -0.6,0 -1.1,0 -1.1,-0.94 0,-0.41 0.3,-0.61 0.6,-0.61 1.4,0 2.8,0.16 4.2,0.16 1.7,0 3.4,-0.16 5,-0.16 0.2,0 0.9,0 0.9,1 0,0.55 -0.5,0.55 -1.2,0.55 -2.5,0 -2.5,0.36 -2.5,0.79 0,0.61 2.1,8.72 2.4,9.97 0.7,-1.44 2.1,-3.19 4.6,-3.19 l 0,1.1 c -3.3,0 -4,4.14 -4,4.44 0,0.09 0,0.2 0.2,0.79 l 2.4,9.77 c 0.4,1.34 1.7,2.73 2.6,3.48 1.7,1.55 3.2,1.89 4,1.89 2,0 3.2,-1.73 3.2,-4.68 0,-2.94 -1.6,-8.66 -2.5,-10.57 -1.7,-3.48 -4.1,-5.12 -5.9,-5.12 l 0,-1.1 c 5.8,0 12,7.27 12,14.6 0,4.69 -2.8,7.97 -6.6,7.97 -2.5,0 -4.9,-1.78 -6.5,-3.74 -0.5,2.69 -2.7,3.74 -4.5,3.74 -2.3,0 -3.3,-1.94 -3.7,-2.83 -0.9,-1.7 -1.6,-4.69 -1.6,-4.84 0,-0.5 0.5,-0.5 0.6,-0.5 0.5,0 0.6,0.06 0.9,1.15 0.8,3.53 1.8,5.92 3.6,5.92 0.9,0 1.6,-0.39 1.6,-2.28 0,-1.15 -0.2,-1.7 -0.4,-2.54 z" /><path
         style="fill:#000000;stroke-width:0;stroke-linecap:square;stroke-linejoin:round"
         inkscape:connector-curvature="0"
         id="path11386"
         d="m 1377.7,401.5 h -1.2 c -0.1,-0.76 -0.5,-2.82 -0.9,-3.17 -0.3,-0.2 -3,-0.2 -3.5,-0.2 h -6.4 c 3.7,3.23 4.9,4.2 7,5.84 2.6,2.07 5,4.22 5,7.53 0,4.22 -3.7,6.8 -8.2,6.8 -4.3,0 -7.2,-3.03 -7.2,-6.23 0,-1.78 1.5,-1.96 1.8,-1.96 0.8,0 1.9,0.6 1.9,1.85 0,0.62 -0.3,1.84 -2.1,1.84 1.1,2.47 3.5,3.24 5.1,3.24 3.5,0 5.3,-2.71 5.3,-5.54 0,-3.03 -2.2,-5.43 -3.3,-6.68 l -8.4,-8.3 c -0.3,-0.31 -0.3,-0.39 -0.3,-1.36 h 14.3 z" /></g>  </g>
  <g
     id="g13028"
     transform="matrix(0.4,0,0,0.4,-26.972069,2.1234903)"
     style="stroke-linecap:square;stroke-linejoin:round">
    <g
       word-spacing="normal"
       letter-spacing="normal"
       font-size-adjust="none"
       font-stretch="normal"
       font-weight="normal"
       font-variant="normal"
       font-style="normal"
       stroke-miterlimit="10.433"
       xml:space="preserve"
       transform="matrix(0.61607143,0,0,-0.61607143,-107.8125,323.4375)"
       id="g13030"
       style="font-style:normal;font-variant:normal;font-weight:normal;font-stretch:normal;letter-spacing:normal;word-spacing:normal;text-anchor:start;fill:none;stroke:#000000;stroke-linecap:square;stroke-linejoin:round;stroke-miterlimit:10.43299961;stroke-opacity:1;stroke-dasharray:none;stroke-dashoffset:0"><path
         id="path13032"
         d="m 446.07625,423.09 0.02,0.1 0.02,0.11 0.03,0.12 0.03,0.11 0.03,0.12 0.03,0.12 0.06,0.25 0.06,0.25 0.06,0.25 0.06,0.24 0.06,0.25 0.03,0.11 0.03,0.12 0.03,0.11 0.02,0.11 0.03,0.1 0.02,0.1 0.02,0.1 0.02,0.09 0.02,0.08 0.02,0.08 0.01,0.07 0.01,0.06 0.01,0.06 0.01,0.05 0,0.04 0.01,0.03 c 0,0.91 -0.71,1.35 -1.46,1.35 -0.59,0 -1.48,-0.39 -1.83,-1.39 -0.15,-0.35 -2.5,-9.86 -2.84,-11.16 -0.36,-1.5 -0.45,-2.39 -0.45,-3.3 0,-0.54 0,-0.64 0.04,-0.89 -1.14,-2.64 -2.64,-4.18 -4.57,-4.18 -3.99,0 -3.99,3.68 -3.99,4.53 0,1.59 0.25,3.54 2.6,9.67 0.54,1.48 0.84,2.19 0.84,3.19 0,2.23 -1.64,4.07 -4.09,4.07 -4.74,0 -6.58,-7.21 -6.58,-7.67 0,-0.5 0.5,-0.5 0.61,-0.5 0.5,0 0.54,0.11 0.79,0.91 1.35,4.62 3.28,6.17 5.03,6.17 0.44,0 1.25,-0.05 1.25,-1.64 0,-1.25 -0.56,-2.64 -0.9,-3.48 -2.19,-5.88 -2.78,-8.18 -2.78,-10.07 0,-4.53 3.33,-6.28 7.06,-6.28 0.86,0 3.19,0 5.19,3.49 1.29,-3.19 4.73,-3.49 6.23,-3.49 3.74,0 5.92,3.14 7.22,6.13 1.69,3.89 3.28,10.56 3.28,12.95 0,2.75 -1.34,3.48 -2.19,3.48 -1.25,0 -2.48,-1.29 -2.48,-2.39 0,-0.64 0.3,-0.93 0.73,-1.34 0.55,-0.55 1.8,-1.84 1.8,-4.23 0,-1.69 -1.44,-6.58 -2.73,-9.11 -1.3,-2.64 -3.05,-4.39 -5.49,-4.39 -2.34,0 -3.69,1.5 -3.69,4.32 0,1.41 0.35,2.96 0.55,3.64 z"
         inkscape:connector-curvature="0"
         style="fill:#000000;stroke-width:0;stroke-linecap:square;stroke-linejoin:round" /><path
         id="path13034"
         d="m 474.30625,440.23 0,0 0,0.01 0,0 0,0.01 0,0.02 0,0.01 0,0.02 0,0.02 -0.01,0.02 0,0.02 -0.01,0.02 0,0.02 -0.01,0.02 -0.01,0.03 -0.01,0.02 -0.01,0.03 -0.02,0.02 -0.01,0.03 -0.02,0.02 -0.02,0.02 -0.02,0.03 -0.02,0.01 -0.01,0.01 -0.01,0.01 -0.01,0.01 -0.02,0.01 -0.01,0.01 -0.02,0.01 -0.02,0.01 -0.01,0.01 -0.02,0.01 -0.02,0 -0.02,0.01 -0.02,0.01 -0.02,0 -0.02,0.01 -0.03,0.01 -0.02,0 -0.02,0 -0.03,0.01 -0.02,0 -0.03,0 -0.03,0.01 -0.03,0 -0.03,0 c -1.15,0 -4.78,-0.41 -6.08,-0.5 -0.4,-0.05 -0.95,-0.1 -0.95,-1 0,-0.6 0.45,-0.6 1.2,-0.6 2.4,0 2.49,-0.34 2.49,-0.84 l -0.16,-1 -7.22,-28.7 c -0.2,-0.69 -0.2,-0.8 -0.2,-1.1 0,-1.14 1,-1.39 1.45,-1.39 0.8,0 1.6,0.6 1.85,1.3 l 0.94,3.78 1.1,4.48 c 0.3,1.1 0.6,2.19 0.85,3.35 0.09,0.3 0.5,1.94 0.55,2.23 0.14,0.46 1.68,3.25 3.39,4.6 1.09,0.79 2.64,1.73 4.78,1.73 2.14,0 2.68,-1.69 2.68,-3.48 0,-2.69 -1.89,-8.13 -3.09,-11.16 -0.39,-1.16 -0.64,-1.75 -0.64,-2.75 0,-2.33 1.73,-4.08 4.08,-4.08 4.69,0 6.53,7.27 6.53,7.67 0,0.5 -0.45,0.5 -0.59,0.5 -0.5,0 -0.5,-0.15 -0.75,-0.9 -0.75,-2.64 -2.35,-6.17 -5.08,-6.17 -0.86,0 -1.21,0.5 -1.21,1.64 0,1.25 0.46,2.45 0.91,3.54 0.8,2.14 3.03,8.07 3.03,10.96 0,3.23 -2,5.32 -5.73,5.32 -3.14,0 -5.53,-1.53 -7.38,-3.82 z"
         inkscape:connector-curvature="0"
         style="fill:#000000;stroke-width:0;stroke-linecap:square;stroke-linejoin:round" /><path
         id="path13036"
         d="m 498.00625,417.71 0.14,0.01 0.16,0 0.16,0 0.18,0 0.19,0.01 0.2,0 0.21,0.01 0.21,0.01 0.23,0.01 0.23,0.01 0.24,0.01 0.24,0.02 0.26,0.02 0.25,0.02 0.52,0.05 0.54,0.07 0.54,0.07 0.55,0.1 0.54,0.11 0.53,0.12 0.26,0.07 0.26,0.08 0.26,0.08 0.24,0.08 0.25,0.09 0.23,0.1 c 3.49,1.5 3.74,4.43 3.74,5.12 0,2.2 -1.89,4.23 -5.33,4.23 v -1.09 c 2.34,0 3.69,-1.44 3.69,-3.14 0,-5.17 -7.97,-5.17 -10.02,-5.17 h -2.05 c 1.96,7.56 7.08,8.31 8.38,8.31 v 1.09 c -5.53,0 -13.05,-4.82 -13.05,-13.54 0,-5.08 2.94,-9.02 7.82,-9.02 7.12,0 11.31,5.28 11.31,5.88 0,0.29 -0.3,0.65 -0.6,0.65 -0.25,0 -0.34,-0.11 -0.65,-0.5 -3.94,-4.93 -9.36,-4.93 -9.95,-4.93 -3.9,0 -4.35,4.18 -4.35,5.78 0,0.59 0.05,2.14 0.8,5.18 z"
         inkscape:connector-curvature="0"
         style="fill:#000000;stroke-width:0;stroke-linecap:square;stroke-linejoin:round" /><path
         id="path13038"
         d="m 516.23625,409.14 -0.01,-0.07 -0.02,-0.08 -0.01,-0.07 -0.02,-0.08 -0.04,-0.16 -0.03,-0.16 -0.04,-0.16 -0.04,-0.16 -0.04,-0.16 -0.03,-0.16 -0.02,-0.08 -0.02,-0.07 -0.01,-0.07 -0.02,-0.07 -0.01,-0.07 -0.02,-0.07 -0.01,-0.06 -0.01,-0.06 -0.01,-0.06 -0.01,-0.05 -0.01,-0.05 -0.01,-0.04 0,-0.04 -0.01,-0.04 0,-0.03 0,-0.02 c 0,-0.89 0.7,-1.35 1.44,-1.35 0.61,0 1.5,0.39 1.84,1.39 0.11,0.21 1.8,6.99 2,7.88 0.39,1.64 1.3,5.12 1.59,6.48 0.21,0.64 1.6,2.99 2.79,4.08 0.4,0.34 1.84,1.64 4,1.64 1.28,0 2.03,-0.59 2.07,-0.59 -1.48,-0.25 -2.57,-1.46 -2.57,-2.74 0,-0.79 0.54,-1.75 1.89,-1.75 1.34,0 2.73,1.14 2.73,2.94 0,1.75 -1.59,3.23 -4.12,3.23 -3.25,0 -5.44,-2.43 -6.39,-3.82 -0.4,2.23 -2.19,3.82 -4.54,3.82 -2.28,0 -3.23,-1.93 -3.68,-2.82 -0.89,-1.71 -1.55,-4.69 -1.55,-4.85 0,-0.5 0.5,-0.5 0.61,-0.5 0.5,0 0.55,0.07 0.84,1.16 0.85,3.53 1.85,5.92 3.64,5.92 0.85,0 1.55,-0.39 1.55,-2.28 0,-1.05 -0.16,-1.61 -0.8,-4.19 z"
         inkscape:connector-curvature="0"
         style="fill:#000000;stroke-width:0;stroke-linecap:square;stroke-linejoin:round" /><path
         id="path13040"
         d="m 545.03625,417.71 0.15,0.01 0.15,0 0.17,0 0.18,0 0.19,0.01 0.19,0 0.21,0.01 0.22,0.01 0.22,0.01 0.24,0.01 0.24,0.01 0.24,0.02 0.25,0.02 0.26,0.02 0.52,0.05 0.54,0.07 0.54,0.07 0.54,0.1 0.54,0.11 0.54,0.12 0.26,0.07 0.26,0.08 0.25,0.08 0.25,0.08 0.24,0.09 0.24,0.1 c 3.48,1.5 3.73,4.43 3.73,5.12 0,2.2 -1.89,4.23 -5.33,4.23 v -1.09 c 2.35,0 3.69,-1.44 3.69,-3.14 0,-5.17 -7.97,-5.17 -10.01,-5.17 h -2.05 c 1.95,7.56 7.08,8.31 8.37,8.31 v 1.09 c -5.53,0 -13.04,-4.82 -13.04,-13.54 0,-5.08 2.94,-9.02 7.81,-9.02 7.13,0 11.31,5.28 11.31,5.88 0,0.29 -0.29,0.65 -0.59,0.65 -0.25,0 -0.34,-0.11 -0.66,-0.5 -3.93,-4.93 -9.36,-4.93 -9.95,-4.93 -3.89,0 -4.34,4.18 -4.34,5.78 0,0.59 0.04,2.14 0.79,5.18 z"
         inkscape:connector-curvature="0"
         style="fill:#000000;stroke-width:0;stroke-linecap:square;stroke-linejoin:round" /><path
         id="path13042"
         d="m 601.61,426.12 h 4.69 c 0.98,0 1.48,0 1.48,1 0,0.55 -0.5,0.55 -1.38,0.55 H 602 c 1.8,7.08 2.05,8.08 2.05,8.37 0,0.85 -0.59,1.35 -1.44,1.35 -0.15,0 -1.54,-0.05 -2,-1.8 l -1.93,-7.92 h -4.69 c -1,0 -1.5,0 -1.5,-0.94 0,-0.61 0.41,-0.61 1.41,-0.61 h 4.37 c -3.58,-14.14 -3.78,-14.98 -3.78,-15.89 0,-2.69 1.89,-4.58 4.58,-4.58 5.08,0 7.92,7.27 7.92,7.67 0,0.5 -0.39,0.5 -0.59,0.5 -0.46,0 -0.5,-0.15 -0.75,-0.7 -2.15,-5.17 -4.79,-6.37 -6.47,-6.37 -1.05,0 -1.55,0.65 -1.55,2.29 0,1.19 0.09,1.55 0.3,2.39 z"
         inkscape:connector-curvature="0"
         style="fill:#000000;stroke-width:0;stroke-linecap:square;stroke-linejoin:round" /><path
         id="path13044"
         d="m 656.89,431.01 0.06,0.03 0.05,0.03 0.06,0.02 0.05,0.03 0.05,0.03 0.05,0.03 0.04,0.02 0.05,0.03 0.04,0.03 0.04,0.03 0.04,0.03 0.04,0.02 0.04,0.03 0.03,0.03 0.03,0.03 0.04,0.04 0.03,0.03 0.02,0.03 0.03,0.03 0.02,0.04 0.03,0.03 0.02,0.04 0.01,0.04 0.02,0.04 0.02,0.04 0.01,0.04 0.01,0.04 0.01,0.04 0,0.05 0.01,0.05 0,0.04 0,0.06 c 0,0.54 -0.45,1 -1,1 -0.14,0 -0.25,0 -0.89,-0.35 l -27.61,-13.01 c -0.54,-0.25 -0.93,-0.5 -0.93,-1.1 0,-0.59 0.39,-0.84 0.93,-1.09 l 27.61,-13 c 0.64,-0.36 0.75,-0.36 0.89,-0.36 0.55,0 1,0.45 1,1 0,0.55 -0.34,0.8 -0.95,1.09 l -26.16,12.36 z"
         inkscape:connector-curvature="0"
         style="fill:#000000;stroke-width:0;stroke-linecap:square;stroke-linejoin:round" /><path
         id="path13046"
         d="m 686.21,426.12 h 4.69 c 0.98,0 1.48,0 1.48,1 0,0.55 -0.5,0.55 -1.39,0.55 h -4.39 c 1.8,7.08 2.05,8.08 2.05,8.37 0,0.85 -0.6,1.35 -1.44,1.35 -0.16,0 -1.55,-0.05 -2,-1.8 l -1.94,-7.92 h -4.68 c -1,0 -1.5,0 -1.5,-0.94 0,-0.61 0.4,-0.61 1.4,-0.61 h 4.38 c -3.58,-14.14 -3.78,-14.98 -3.78,-15.89 0,-2.69 1.89,-4.58 4.57,-4.58 5.08,0 7.93,7.27 7.93,7.67 0,0.5 -0.39,0.5 -0.6,0.5 -0.45,0 -0.5,-0.15 -0.75,-0.7 -2.14,-5.17 -4.78,-6.37 -6.47,-6.37 -1.04,0 -1.54,0.65 -1.54,2.29 0,1.19 0.09,1.55 0.29,2.39 z"
         inkscape:connector-curvature="0"
         style="fill:#000000;stroke-width:0;stroke-linecap:square;stroke-linejoin:round" /><path
         id="path13048"
         d="m 711.95,409.87 -0.01,0.71 -0.02,0.68 -0.03,0.66 -0.04,0.64 -0.06,0.62 -0.07,0.6 -0.09,0.57 -0.11,0.56 -0.13,0.55 -0.15,0.53 -0.17,0.51 -0.19,0.5 -0.21,0.49 -0.24,0.48 -0.26,0.47 -0.14,0.23 -0.15,0.23 c -1.08,1.61 -3.23,3 -6.03,3 v -0.98 c 1.89,0 3.7,-1.14 4.33,-3.17 0.56,-1.88 0.59,-4.39 0.59,-7.43 0,-2.57 0,-5.15 -0.45,-7.34 -0.7,-3.17 -3.06,-3.94 -4.47,-3.94 h 0 c -1.59,0 -3.72,0.94 -4.42,3.8 -0.48,2.05 -0.48,4.91 -0.48,7.48 0,2.55 0,5.21 0.51,7.11 0.74,2.75 2.97,3.49 4.39,3.49 v 0.98 c -8.08,0 -8.08,-9.51 -8.08,-12.03 0,-2.5 0,-11.81 8.08,-11.81 8.1,0 8.1,9.31 8.1,11.81 z"
         inkscape:connector-curvature="0"
         style="fill:#000000;stroke-width:0;stroke-linecap:square;stroke-linejoin:round" /><path
         id="path13050"
         d="m 739.64,425.03 0,0.13 -0.01,0.14 -0.02,0.13 -0.02,0.13 -0.03,0.13 -0.04,0.12 -0.04,0.12 -0.05,0.12 -0.05,0.12 -0.06,0.11 -0.06,0.11 -0.07,0.11 -0.08,0.1 -0.07,0.1 -0.09,0.1 -0.08,0.09 -0.1,0.09 -0.09,0.08 -0.1,0.08 -0.11,0.08 -0.1,0.06 -0.11,0.07 -0.12,0.06 -0.11,0.05 -0.12,0.05 -0.13,0.04 -0.12,0.03 -0.13,0.03 -0.13,0.03 -0.13,0.01 -0.13,0.01 -0.14,0.01 c -1.44,0 -2.64,-1.19 -2.64,-2.64 0,-1.44 1.2,-2.64 2.64,-2.64 1.45,0 2.64,1.2 2.64,2.64 z"
         inkscape:connector-curvature="0"
         style="fill:#000000;stroke-width:0;stroke-linecap:square;stroke-linejoin:round" /><path
         id="path13052"
         d="m 739.64,408.84 0,0.13 -0.01,0.14 -0.02,0.13 -0.02,0.13 -0.03,0.12 -0.04,0.13 -0.04,0.12 -0.05,0.12 -0.05,0.12 -0.06,0.11 -0.06,0.11 -0.07,0.11 -0.08,0.1 -0.07,0.1 -0.09,0.1 -0.08,0.09 -0.1,0.09 -0.09,0.08 -0.1,0.08 -0.11,0.07 -0.1,0.07 -0.11,0.07 -0.12,0.06 -0.11,0.05 -0.12,0.05 -0.13,0.04 -0.12,0.04 -0.13,0.03 -0.13,0.02 -0.13,0.02 -0.13,0.01 -0.14,0 c -1.44,0 -2.64,-1.2 -2.64,-2.64 0,-1.44 1.2,-2.64 2.64,-2.64 1.45,0 2.64,1.2 2.64,2.64 z"
         inkscape:connector-curvature="0"
         style="fill:#000000;stroke-width:0;stroke-linecap:square;stroke-linejoin:round" /><path
         id="path13054"
         d="m 760.03,400.12 -0.03,-0.15 -0.04,-0.15 -0.03,-0.14 -0.04,-0.13 -0.03,-0.13 -0.03,-0.11 -0.04,-0.12 -0.03,-0.1 -0.04,-0.1 -0.04,-0.09 -0.04,-0.09 -0.05,-0.08 -0.05,-0.07 -0.05,-0.07 -0.06,-0.07 -0.06,-0.06 -0.07,-0.05 -0.07,-0.05 -0.08,-0.04 -0.09,-0.04 -0.09,-0.04 -0.11,-0.03 -0.1,-0.03 -0.12,-0.02 -0.13,-0.02 -0.06,-0.01 -0.07,-0.01 -0.07,-0.01 -0.08,-0.01 -0.08,0 -0.07,-0.01 -0.09,0 -0.08,-0.01 -0.09,0 -0.09,0 -0.09,0 -0.1,0 -0.09,-0.01 -0.11,0 c -0.59,0 -1.14,0 -1.14,-0.93 0,-0.41 0.25,-0.61 0.64,-0.61 1.36,0 2.8,0.15 4.19,0.15 1.64,0 3.35,-0.15 4.94,-0.15 0.25,0 0.89,0 0.89,1 0,0.54 -0.5,0.54 -1.19,0.54 -2.5,0 -2.5,0.36 -2.5,0.8 0,0.61 2.1,8.72 2.45,9.97 0.65,-1.44 2.04,-3.19 4.58,-3.19 l -0.04,1.1 c -3.3,0 -3.94,4.14 -3.94,4.43 0,0.1 0,0.21 0.14,0.8 l 2.45,9.77 c 0.35,1.34 1.69,2.73 2.58,3.48 1.75,1.55 3.2,1.89 4.05,1.89 1.98,0 3.18,-1.73 3.18,-4.69 0,-2.93 -1.64,-8.65 -2.54,-10.56 -1.69,-3.48 -4.08,-5.12 -5.92,-5.12 l 0.04,-1.1 c 5.78,0 12,7.27 12,14.6 0,4.68 -2.82,7.96 -6.62,7.96 -2.49,0 -4.88,-1.78 -6.52,-3.73 -0.5,2.69 -2.64,3.73 -4.48,3.73 -2.3,0 -3.25,-1.93 -3.69,-2.82 -0.91,-1.71 -1.55,-4.69 -1.55,-4.85 0,-0.5 0.5,-0.5 0.6,-0.5 0.5,0 0.54,0.07 0.84,1.16 0.86,3.53 1.84,5.92 3.64,5.92 0.85,0 1.55,-0.39 1.55,-2.28 0,-1.16 -0.16,-1.7 -0.35,-2.55 z"
         inkscape:connector-curvature="0"
         style="fill:#000000;stroke-width:0;stroke-linecap:square;stroke-linejoin:round" /><path
         id="path13056"
         d="m 799.36,394.25 0,0.02 0,0.03 0,0.01 -0.01,0.02 0,0.01 0,0.02 -0.01,0.01 -0.01,0.02 -0.01,0.02 -0.01,0.02 -0.01,0.02 -0.01,0.03 -0.02,0.02 -0.02,0.03 -0.02,0.03 -0.02,0.03 -0.03,0.03 -0.03,0.04 -0.01,0.02 -0.02,0.02 -0.02,0.02 -0.01,0.02 -0.02,0.02 -0.02,0.03 -0.02,0.02 -0.03,0.02 -0.02,0.03 -0.02,0.02 -0.03,0.03 -0.02,0.03 -0.03,0.03 -0.03,0.03 -0.03,0.03 -0.03,0.03 -0.03,0.03 -0.03,0.03 -0.03,0.04 -0.04,0.03 -0.03,0.04 -0.04,0.03 -0.04,0.04 -0.03,0.04 c -6.22,6.28 -7.82,15.69 -7.82,23.31 0,8.67 1.89,17.35 8.02,23.56 0.64,0.61 0.64,0.71 0.64,0.86 0,0.35 -0.19,0.49 -0.48,0.49 -0.5,0 -4.99,-3.38 -7.93,-9.7 -2.54,-5.49 -3.14,-11.02 -3.14,-15.21 0,-3.89 0.55,-9.9 3.28,-15.54 2.99,-6.13 7.29,-9.36 7.79,-9.36 0.29,0 0.48,0.14 0.48,0.5 z"
         inkscape:connector-curvature="0"
         style="fill:#000000;stroke-width:0;stroke-linecap:square;stroke-linejoin:round" /><path
         id="path13058"
         d="m 812.46,426.12 h 4.69 c 0.98,0 1.48,0 1.48,1 0,0.55 -0.5,0.55 -1.39,0.55 h -4.39 c 1.8,7.08 2.05,8.08 2.05,8.37 0,0.85 -0.6,1.35 -1.44,1.35 -0.16,0 -1.55,-0.05 -2,-1.8 l -1.94,-7.92 h -4.69 c -1,0 -1.5,0 -1.5,-0.94 0,-0.61 0.41,-0.61 1.41,-0.61 h 4.37 c -3.58,-14.14 -3.78,-14.98 -3.78,-15.89 0,-2.69 1.89,-4.58 4.58,-4.58 5.08,0 7.92,7.27 7.92,7.67 0,0.5 -0.39,0.5 -0.59,0.5 -0.46,0 -0.5,-0.15 -0.75,-0.7 -2.14,-5.17 -4.78,-6.37 -6.47,-6.37 -1.05,0 -1.55,0.65 -1.55,2.29 0,1.19 0.1,1.55 0.3,2.39 z"
         inkscape:connector-curvature="0"
         style="fill:#000000;stroke-width:0;stroke-linecap:square;stroke-linejoin:round" /><path
         id="path13060"
         d="m 834.58,418.65 0,0.37 0,0.39 -0.01,0.39 -0.02,0.41 -0.04,0.84 -0.06,0.88 -0.08,0.92 -0.11,0.95 -0.13,0.97 -0.16,1.01 -0.2,1.02 -0.23,1.03 -0.27,1.05 -0.3,1.06 -0.35,1.07 -0.39,1.07 -0.22,0.53 -0.22,0.53 -0.24,0.53 -0.25,0.53 c -2.98,6.12 -7.27,9.36 -7.77,9.36 -0.29,0 -0.5,-0.19 -0.5,-0.49 0,-0.15 0,-0.25 0.94,-1.15 4.89,-4.92 7.74,-12.85 7.74,-23.27 0,-8.51 -1.85,-17.28 -8.03,-23.56 -0.65,-0.59 -0.65,-0.7 -0.65,-0.84 0,-0.3 0.21,-0.5 0.5,-0.5 0.5,0 4.97,3.39 7.93,9.71 2.53,5.47 3.12,11 3.12,15.19 z"
         inkscape:connector-curvature="0"
         style="fill:#000000;stroke-width:0;stroke-linecap:square;stroke-linejoin:round" /><path
         id="path13062"
         d="m 887.66,422.5 0.14,0 0.15,0 0.14,0 0.07,0.01 0.08,0 0.07,0.01 0.07,0.01 0.07,0.01 0.07,0.01 0.07,0.01 0.07,0.02 0.06,0.02 0.06,0.02 0.06,0.02 0.06,0.03 0.06,0.03 0.05,0.04 0.05,0.03 0.05,0.05 0.04,0.04 0.04,0.05 0.02,0.03 0.02,0.03 0.01,0.02 0.02,0.03 0.01,0.03 0.02,0.04 0.01,0.03 0.01,0.04 0.01,0.03 0.01,0.04 0.01,0.04 0,0.04 0.01,0.04 0,0.04 0,0.04 0,0.05 c 0,1 -0.95,1 -1.64,1 h -29.84 c -0.71,0 -1.64,0 -1.64,-1 0,-0.98 0.93,-0.98 1.68,-0.98 z"
         inkscape:connector-curvature="0"
         style="fill:#000000;stroke-width:0;stroke-linecap:square;stroke-linejoin:round" /><path
         id="path13064"
         d="m 887.71,412.82 0.07,0 0.06,0 0.14,0.01 0.14,0 0.07,0 0.07,0.01 0.07,0.01 0.07,0 0.06,0.01 0.07,0.02 0.07,0.01 0.06,0.02 0.07,0.02 0.06,0.02 0.06,0.02 0.06,0.03 0.05,0.03 0.05,0.04 0.05,0.04 0.05,0.04 0.04,0.05 0.02,0.02 0.02,0.03 0.02,0.02 0.02,0.03 0.01,0.03 0.02,0.03 0.01,0.03 0.02,0.03 0.01,0.04 0.01,0.03 0.01,0.04 0.01,0.04 0.01,0.04 0,0.04 0.01,0.04 0,0.04 0,0.05 0,0.04 c 0,1 -0.95,1 -1.69,1 h -29.75 c -0.75,0 -1.68,0 -1.68,-1 0,-1 0.93,-1 1.64,-1 z"
         inkscape:connector-curvature="0"
         style="fill:#000000;stroke-width:0;stroke-linecap:square;stroke-linejoin:round" /><path
         id="path13066"
         d="m 908.22,400.12 -0.04,-0.15 -0.03,-0.15 -0.04,-0.14 -0.03,-0.13 -0.03,-0.13 -0.04,-0.11 -0.03,-0.12 -0.04,-0.1 -0.03,-0.1 -0.04,-0.09 -0.05,-0.09 -0.04,-0.08 -0.05,-0.07 -0.06,-0.07 -0.05,-0.07 -0.07,-0.06 -0.06,-0.05 -0.08,-0.05 -0.08,-0.04 -0.08,-0.04 -0.1,-0.04 -0.1,-0.03 -0.11,-0.03 -0.11,-0.02 -0.13,-0.02 -0.07,-0.01 -0.07,-0.01 -0.07,-0.01 -0.07,-0.01 -0.08,0 -0.08,-0.01 -0.08,0 -0.08,-0.01 -0.09,0 -0.09,0 -0.09,0 -0.1,0 -0.1,-0.01 -0.1,0 c -0.59,0 -1.14,0 -1.14,-0.93 0,-0.41 0.25,-0.61 0.64,-0.61 1.36,0 2.8,0.15 4.19,0.15 1.64,0 3.34,-0.15 4.94,-0.15 0.25,0 0.89,0 0.89,1 0,0.54 -0.5,0.54 -1.19,0.54 -2.5,0 -2.5,0.36 -2.5,0.8 0,0.61 2.09,8.72 2.45,9.97 0.64,-1.44 2.03,-3.19 4.58,-3.19 l -0.05,1.1 c -3.29,0 -3.93,4.14 -3.93,4.43 0,0.1 0,0.21 0.14,0.8 l 2.45,9.77 c 0.34,1.34 1.69,2.73 2.58,3.48 1.75,1.55 3.2,1.89 4.04,1.89 1.99,0 3.19,-1.73 3.19,-4.69 0,-2.93 -1.64,-8.65 -2.54,-10.56 -1.69,-3.48 -4.08,-5.12 -5.93,-5.12 l 0.05,-1.1 c 5.78,0 12,7.27 12,14.6 0,4.68 -2.83,7.96 -6.62,7.96 -2.49,0 -4.88,-1.78 -6.52,-3.73 -0.5,2.69 -2.64,3.73 -4.48,3.73 -2.3,0 -3.25,-1.93 -3.69,-2.82 -0.91,-1.71 -1.55,-4.69 -1.55,-4.85 0,-0.5 0.5,-0.5 0.59,-0.5 0.5,0 0.55,0.07 0.85,1.16 0.86,3.53 1.84,5.92 3.64,5.92 0.84,0 1.55,-0.39 1.55,-2.28 0,-1.16 -0.16,-1.7 -0.35,-2.55 z"
         inkscape:connector-curvature="0"
         style="fill:#000000;stroke-width:0;stroke-linecap:square;stroke-linejoin:round" /><path
         id="path13068"
         d="m 942.75,420.92 0,0.04 0,0.04 0,0.05 0,0.04 0,0.03 0,0.04 0,0.04 0,0.03 -0.01,0.04 0,0.03 0,0.03 0,0.03 0,0.03 -0.01,0.03 0,0.03 -0.01,0.02 0,0.03 0,0.02 -0.01,0.03 0,0.02 -0.02,0.04 -0.01,0.04 -0.02,0.03 -0.02,0.03 -0.02,0.03 -0.02,0.03 -0.03,0.02 -0.03,0.02 -0.04,0.02 -0.03,0.01 -0.04,0.01 -0.05,0.02 -0.02,0 -0.03,0 -0.02,0.01 -0.03,0 -0.03,0.01 -0.02,0 -0.03,0 -0.03,0 -0.04,0 -0.03,0.01 -0.03,0 -0.04,0 -0.04,0 -0.03,0 -0.04,0 -0.04,0 -0.04,0 -0.05,0 -0.04,0 -0.05,0 c -2.23,-2.2 -5.39,-2.23 -6.82,-2.23 v -1.25 c 0.84,0 3.14,0 5.04,0.97 v -17.77 c 0,-1.16 0,-1.61 -3.48,-1.61 h -1.32 v -1.25 c 0.63,0.03 4.91,0.14 6.21,0.14 1.08,0 5.47,-0.11 6.23,-0.14 v 1.25 h -1.33 c -3.48,0 -3.48,0.45 -3.48,1.61 z"
         inkscape:connector-curvature="0"
         style="fill:#000000;stroke-width:0;stroke-linecap:square;stroke-linejoin:round" /></g>  </g>
</svg>
